<svg width="40" height="40" viewBox="0 0 40 40" fill="none" xmlns="http://www.w3.org/2000/svg">
<path d="M8.33325 16.6667C8.33325 13.5645 8.33325 12.0135 8.74111 10.7582C9.56543 8.22121 11.5545 6.23218 14.0914 5.40786C15.3467 5 16.8978 5 19.9999 5C23.1021 5 24.6531 5 25.9084 5.40786C28.4454 6.23218 30.4344 8.22121 31.2587 10.7582C31.6666 12.0135 31.6666 13.5645 31.6666 16.6667V28.9789C31.6666 32.1741 31.6666 33.7718 31.0967 34.6167C30.4004 35.6488 29.1869 36.2069 27.9501 36.0638C26.9377 35.9467 25.7248 34.907 23.2988 32.8276C22.2309 31.9123 21.6969 31.4546 21.1104 31.2474C20.3919 30.9935 19.608 30.9935 18.8894 31.2474C18.3029 31.4546 17.769 31.9123 16.7011 32.8276C14.2751 34.907 13.0621 35.9467 12.0497 36.0638C10.8129 36.2069 9.59943 35.6488 8.90318 34.6167C8.33325 33.7718 8.33325 32.1741 8.33325 28.9789V16.6667Z" stroke="#2E2E2E" stroke-width="2"/>
<path d="M8.33325 16.6667C8.33325 13.5645 8.33325 12.0135 8.74111 10.7582C9.56543 8.22121 11.5545 6.23218 14.0914 5.40786C15.3467 5 16.8978 5 19.9999 5C23.1021 5 24.6531 5 25.9084 5.40786C28.4454 6.23218 30.4344 8.22121 31.2587 10.7582C31.6666 12.0135 31.6666 13.5645 31.6666 16.6667V28.9789C31.6666 32.1741 31.6666 33.7718 31.0967 34.6167C30.4004 35.6488 29.1869 36.2069 27.9501 36.0638C26.9377 35.9467 25.7248 34.907 23.2988 32.8276C22.2309 31.9123 21.6969 31.4546 21.1104 31.2474C20.3919 30.9935 19.608 30.9935 18.8894 31.2474C18.3029 31.4546 17.769 31.9123 16.7011 32.8276C14.2751 34.907 13.0621 35.9467 12.0497 36.0638C10.8129 36.2069 9.59943 35.6488 8.90318 34.6167C8.33325 33.7718 8.33325 32.1741 8.33325 28.9789V16.6667Z" stroke="black" stroke-opacity="0.2" stroke-width="2"/>
<path d="M8.33325 16.6667C8.33325 13.5645 8.33325 12.0135 8.74111 10.7582C9.56543 8.22121 11.5545 6.23218 14.0914 5.40786C15.3467 5 16.8978 5 19.9999 5C23.1021 5 24.6531 5 25.9084 5.40786C28.4454 6.23218 30.4344 8.22121 31.2587 10.7582C31.6666 12.0135 31.6666 13.5645 31.6666 16.6667V28.9789C31.6666 32.1741 31.6666 33.7718 31.0967 34.6167C30.4004 35.6488 29.1869 36.2069 27.9501 36.0638C26.9377 35.9467 25.7248 34.907 23.2988 32.8276C22.2309 31.9123 21.6969 31.4546 21.1104 31.2474C20.3919 30.9935 19.608 30.9935 18.8894 31.2474C18.3029 31.4546 17.769 31.9123 16.7011 32.8276C14.2751 34.907 13.0621 35.9467 12.0497 36.0638C10.8129 36.2069 9.59943 35.6488 8.90318 34.6167C8.33325 33.7718 8.33325 32.1741 8.33325 28.9789V16.6667Z" stroke="black" stroke-opacity="0.2" stroke-width="2"/>
<path d="M8.33325 16.6667C8.33325 13.5645 8.33325 12.0135 8.74111 10.7582C9.56543 8.22121 11.5545 6.23218 14.0914 5.40786C15.3467 5 16.8978 5 19.9999 5C23.1021 5 24.6531 5 25.9084 5.40786C28.4454 6.23218 30.4344 8.22121 31.2587 10.7582C31.6666 12.0135 31.6666 13.5645 31.6666 16.6667V28.9789C31.6666 32.1741 31.6666 33.7718 31.0967 34.6167C30.4004 35.6488 29.1869 36.2069 27.9501 36.0638C26.9377 35.9467 25.7248 34.907 23.2988 32.8276C22.2309 31.9123 21.6969 31.4546 21.1104 31.2474C20.3919 30.9935 19.608 30.9935 18.8894 31.2474C18.3029 31.4546 17.769 31.9123 16.7011 32.8276C14.2751 34.907 13.0621 35.9467 12.0497 36.0638C10.8129 36.2069 9.59943 35.6488 8.90318 34.6167C8.33325 33.7718 8.33325 32.1741 8.33325 28.9789V16.6667Z" stroke="black" stroke-opacity="0.2" stroke-width="2"/>
<path d="M8.33325 16.6667C8.33325 13.5645 8.33325 12.0135 8.74111 10.7582C9.56543 8.22121 11.5545 6.23218 14.0914 5.40786C15.3467 5 16.8978 5 19.9999 5C23.1021 5 24.6531 5 25.9084 5.40786C28.4454 6.23218 30.4344 8.22121 31.2587 10.7582C31.6666 12.0135 31.6666 13.5645 31.6666 16.6667V28.9789C31.6666 32.1741 31.6666 33.7718 31.0967 34.6167C30.4004 35.6488 29.1869 36.2069 27.9501 36.0638C26.9377 35.9467 25.7248 34.907 23.2988 32.8276C22.2309 31.9123 21.6969 31.4546 21.1104 31.2474C20.3919 30.9935 19.608 30.9935 18.8894 31.2474C18.3029 31.4546 17.769 31.9123 16.7011 32.8276C14.2751 34.907 13.0621 35.9467 12.0497 36.0638C10.8129 36.2069 9.59943 35.6488 8.90318 34.6167C8.33325 33.7718 8.33325 32.1741 8.33325 28.9789V16.6667Z" stroke="black" stroke-opacity="0.2" stroke-width="2"/>
</svg>
