<svg width="113" height="113" viewBox="0 0 113 113" fill="none" xmlns="http://www.w3.org/2000/svg">
<path d="M62.8113 43.1468C62.7622 43.1887 62.7155 43.2335 62.6716 43.281C62.487 43.4319 62.2131 43.555 62.1124 43.4543C62.0631 43.3723 62.0255 43.2839 62.0006 43.1915C61.8694 42.7701 61.7163 42.3558 61.5421 41.9502C61.5317 41.9347 61.5156 41.9239 61.4972 41.9202C61.4789 41.9165 61.4598 41.9203 61.4443 41.9307C61.4287 41.9411 61.4179 41.9572 61.4142 41.9755C61.4105 41.9939 61.4143 42.013 61.4247 42.0285C61.5266 42.5946 61.7152 43.1415 61.9838 43.65C62.0718 43.7009 62.1706 43.73 62.2721 43.7349C62.3736 43.7398 62.4748 43.7204 62.5673 43.6783C62.6597 43.6362 62.7408 43.5725 62.8037 43.4927C62.8665 43.4129 62.9094 43.3192 62.9288 43.2195C62.9288 43.1468 62.884 43.1076 62.8113 43.1468ZM64.4943 43.555C64.5279 44.6732 63.9352 45.1485 62.9232 45.0255C62.9064 45.0255 62.8901 45.0313 62.8771 45.0419C62.8641 45.0526 62.8552 45.0674 62.8519 45.0839C62.8486 45.1004 62.8511 45.1175 62.859 45.1323C62.8669 45.1472 62.8797 45.1588 62.8952 45.1653C63.1269 45.2492 63.3774 45.2674 63.6188 45.2178C63.8602 45.1683 64.0833 45.0529 64.2632 44.8845C64.4432 44.7162 64.5731 44.5013 64.6385 44.2637C64.704 44.0261 64.7025 43.775 64.6341 43.5382C64.6283 43.5232 64.6176 43.5105 64.6038 43.5022C64.5899 43.4939 64.5737 43.4905 64.5577 43.4924C64.5417 43.4943 64.5268 43.5015 64.5153 43.5128C64.5038 43.5241 64.4965 43.539 64.4943 43.555ZM63.4376 39.8703C63.3146 39.9038 63.2754 40.1331 63.3593 40.3847C63.4432 40.6363 63.5997 40.8096 63.7283 40.7761C63.8569 40.7425 63.8849 40.5133 63.8066 40.2617C63.7283 40.0101 63.5606 39.8367 63.4376 39.8703ZM64.0135 38.9421C64.0526 38.9757 64.1141 38.9421 64.0806 38.8862C63.5214 38.1314 62.6492 38.3774 62.5877 39.121C62.5877 39.1658 62.6548 39.1825 62.6716 39.121C62.9008 38.4948 63.4655 38.4053 64.0135 38.9421ZM59.5348 41.3464C59.4118 41.3967 59.4062 41.6315 59.5348 41.8664C59.6634 42.1012 59.8312 42.2578 59.9542 42.2074C60.0772 42.1571 60.0772 41.9279 59.9542 41.693C59.8312 41.4582 59.6522 41.3017 59.5348 41.3464ZM58.6626 40.9103C58.6626 40.9103 58.6961 40.9103 58.7129 40.8767C58.7235 40.7765 58.7547 40.6796 58.8047 40.5922C58.8547 40.5047 58.9223 40.4286 59.0033 40.3687C59.0843 40.3088 59.1768 40.2663 59.275 40.244C59.3733 40.2218 59.4751 40.2202 59.574 40.2393C59.8759 40.1834 58.9757 39.8255 58.6849 40.5189C58.629 40.5748 58.5787 40.8599 58.6626 40.9103Z" fill="#2C6822"/>
<path d="M49.3083 64.7517C49.3083 65.1802 49.4774 65.5912 49.7784 65.8943C50.0793 66.1973 50.4875 66.3675 50.9131 66.3675C51.3387 66.3675 51.7468 66.1973 52.0478 65.8943C52.3487 65.5912 52.5178 65.1802 52.5178 64.7517C52.5178 64.3231 52.3487 63.9121 52.0478 63.609C51.7468 63.306 51.3387 63.1358 50.9131 63.1358C50.4875 63.1358 50.0793 63.306 49.7784 63.609C49.4774 63.9121 49.3083 64.3231 49.3083 64.7517Z" fill="#2C6822"/>
<path d="M84.3938 70.8742C85.8755 70.315 93.8991 69.6049 102.566 70.4157C102.578 70.4118 102.589 70.404 102.597 70.3934C102.605 70.3828 102.609 70.3701 102.609 70.357C102.609 70.3439 102.605 70.3311 102.597 70.3205C102.589 70.31 102.578 70.3022 102.566 70.2983C94.1786 69.3869 86.0824 70.0411 84.3379 70.7679C84.3309 70.7716 84.3248 70.7766 84.3197 70.7827C84.3147 70.7887 84.3109 70.7957 84.3085 70.8033C84.3062 70.8108 84.3054 70.8187 84.3061 70.8266C84.3068 70.8344 84.3091 70.842 84.3128 70.849C84.3164 70.856 84.3214 70.8622 84.3275 70.8672C84.3336 70.8722 84.3406 70.876 84.3481 70.8784C84.3556 70.8807 84.3635 70.8815 84.3714 70.8808C84.3792 70.8801 84.3869 70.8778 84.3938 70.8742ZM101.889 72.7808C101.902 72.7769 101.913 72.7691 101.92 72.7585C101.928 72.748 101.932 72.7352 101.932 72.7221C101.932 72.709 101.928 72.6962 101.92 72.6857C101.913 72.6751 101.902 72.6673 101.889 72.6634C93.8767 71.752 86.977 72.1043 84.2708 72.6634C84.256 72.6634 84.2418 72.6693 84.2313 72.6798C84.2208 72.6903 84.2149 72.7045 84.2149 72.7193C84.2149 72.7341 84.2208 72.7484 84.2313 72.7588C84.2418 72.7693 84.256 72.7752 84.2708 72.7752C86.8372 72.3279 93.9103 71.998 101.889 72.7808ZM101.682 75.0733C96.5661 74.475 89.8733 74.1004 84.7852 74.5141C84.7727 74.518 84.7618 74.5258 84.754 74.5364C84.7462 74.547 84.7421 74.5597 84.7421 74.5728C84.7421 74.5859 84.7462 74.5987 84.754 74.6093C84.7618 74.6198 84.7727 74.6276 84.7852 74.6315C90.4181 74.4222 96.0587 74.609 101.665 75.1907C101.679 75.189 101.691 75.1829 101.701 75.1735C101.71 75.164 101.717 75.1517 101.719 75.1384C101.72 75.125 101.718 75.1114 101.711 75.0997C101.705 75.0879 101.695 75.0786 101.682 75.0733ZM106.714 73.2002C106.714 73.1219 106.614 73.1051 106.597 73.2002C106.066 75.856 104.305 77.9751 103.729 75.6995C103.622 75.074 103.622 74.4351 103.729 73.8096C104.288 70.2591 107.083 69.3757 105.848 73.4182C105.154 75.7778 104.092 75.5932 104.83 72.9094C105.154 71.7911 105.445 71.752 105.322 71.6681C105.317 71.6623 105.311 71.6576 105.305 71.6544C105.298 71.6511 105.291 71.6494 105.283 71.6494C105.275 71.6494 105.268 71.6511 105.261 71.6544C105.255 71.6576 105.249 71.6623 105.244 71.6681C104.994 72.0319 104.805 72.4342 104.685 72.8591C104.495 73.5245 104.176 75.2801 104.83 75.2298C105.663 75.1851 106.709 71.9701 106.105 70.8462C105.501 69.7224 103.902 71.1873 103.505 73.7649C102.851 78.0199 105.932 77.813 106.714 73.2002ZM99.0207 93.944C99.0207 94.8274 99.7308 95.5319 100.95 95.6214C103.572 95.8003 103.533 94.2515 103.695 91.5565C103.734 90.9023 103.773 90.0859 103.779 89.4318C102.342 89.1216 100.881 88.9345 99.4121 88.8726C99.4009 88.9956 98.8865 92.7083 99.0207 93.944Z" fill="#2C6822"/>
<path d="M105.596 82.1966C105.562 80.7317 105.54 79.2444 104.55 78.1653C105.268 77.9045 105.865 77.3892 106.228 76.7171C106.713 75.9193 107.055 75.0434 107.24 74.1283C107.614 72.3727 107.536 69.482 105.915 69.0962C105.423 68.9955 104.299 68.8669 103.091 68.7551V8.22904L102.912 7.91592H4.68387V78.1038H15.2738V79.222C12.3216 79.5351 5.08644 80.9274 3.44819 83.382C3.30524 83.6247 3.24445 83.9071 3.27486 84.1871C3.25423 84.6064 3.35728 85.0225 3.5712 85.3837C3.82281 85.6576 4.13033 85.6297 4.46581 85.6409C4.54409 86.049 4.75097 87.0275 4.89634 87.4636C4.9244 87.6325 5.01202 87.7856 5.14333 87.8954C5.27463 88.0051 5.44091 88.0642 5.61203 88.0619L7.84856 88.157C7.97157 90.3488 8.16167 92.5294 8.40769 94.7044C8.70784 97.0766 9.13904 99.4305 9.69928 101.755C9.74599 101.906 9.83621 102.039 9.95858 102.139C10.081 102.238 10.23 102.299 10.387 102.314C13.9934 102.577 14.0158 102.577 14.4128 102.314C14.6029 102.202 19.0871 96.913 19.1822 96.5272C19.2325 96.3315 19.6183 89.2585 19.663 88.621V88.5875L59.9708 90.1307C60.1608 94.6627 60.7558 99.1686 61.7489 103.595C61.7796 103.807 61.8798 104.004 62.034 104.154C62.201 104.296 62.4132 104.373 62.6323 104.372L65.9424 104.484C66.165 104.526 66.3948 104.509 66.6087 104.434C66.8227 104.36 67.0132 104.23 67.1613 104.059C71.0752 98.8587 71.31 98.7134 71.3771 98.568C71.4946 98.3052 72.0313 90.673 72.0369 90.55C72.1711 90.55 73.8653 90.6227 73.9995 90.5836C74.0866 90.5662 74.1678 90.5267 74.2354 90.4689C74.3029 90.4112 74.3545 90.3371 74.3853 90.2537C75.0895 89.5774 75.7193 88.8276 76.2639 88.0172C76.6833 86.0882 76.6721 86.1944 76.6218 86.0211C76.5985 85.9415 76.5578 85.8682 76.5027 85.8063C76.4476 85.7444 76.3794 85.6955 76.3031 85.6632C76.0785 85.596 75.844 85.5676 75.6098 85.5794C77.6786 83.3428 78.439 81.6095 78.6906 78.579H83.2307C82.174 80.7261 80.9942 83.8013 81.6037 85.7639C81.8665 85.8142 85.4561 86.597 88.4195 86.9157L88.5425 85.7639C88.5537 85.6638 88.6042 85.5723 88.6828 85.5094C88.7614 85.4465 88.8618 85.4174 88.9618 85.4284L91.1984 85.68C91.2973 85.6913 91.3879 85.7409 91.4507 85.8183C91.5134 85.8957 91.5433 85.9946 91.5339 86.0938L91.4388 87.1841C93.4719 87.3165 95.5114 87.3165 97.5445 87.1841C97.9191 84.7015 98.797 79.0431 100.569 77.2036C100.62 77.1477 100.815 77.2595 100.743 77.3657C100.558 77.6229 98.9983 78.6182 97.7067 90.8911C97.3097 94.6373 96.5884 101.688 99.5798 103.869C99.8929 104.098 99.7084 104.282 99.3896 104.075C96.1579 101.984 96.7058 94.6485 97.0972 90.7793C97.2035 89.689 97.3097 88.7776 97.4662 87.6873C95.4504 87.8326 93.4267 87.8326 91.4108 87.6873L91.2934 88.8727C91.2886 88.9245 91.2734 88.9748 91.2486 89.0206C91.2238 89.0664 91.1901 89.1067 91.1493 89.139C91.1086 89.1714 91.0617 89.1952 91.0115 89.209C90.9613 89.2228 90.9089 89.2263 90.8573 89.2193L88.5593 88.8838C88.4619 88.8686 88.374 88.8167 88.3137 88.7387C88.2534 88.6607 88.2252 88.5626 88.235 88.4645L88.3356 87.3965C86.0575 87.1663 83.7998 86.7663 81.5813 86.2C81.3744 87.0387 79.0205 96.7788 80.8824 101.414C82.3138 104.97 94.0108 105.484 98.9983 105.155C99.9155 105.089 100.8 104.788 101.567 104.281C102.334 103.773 102.957 103.077 103.376 102.258C105.512 105.484 107.011 103.986 108.336 102.65C108.643 102.057 108.869 101.425 109.007 100.771C110.242 95.1797 109.281 86.7591 105.596 82.1966ZM90.2087 91.4502C89.7279 92.1939 88.1287 91.4502 88.1287 91.4502C88.9059 91.3496 88.7606 89.4877 88.7606 89.4877L90.5945 89.7784C90.6299 90.3641 90.4877 90.9468 90.1863 91.4502H90.2087ZM107.083 74.1172C106.896 75.0088 106.558 75.8617 106.082 76.6388C105.685 77.2427 105.11 77.9249 104.405 78.0311C104.035 77.6916 103.599 77.431 103.125 77.2651C102.353 75.8896 102.437 72.8479 103.807 70.6449C105.775 67.4579 107.967 69.9852 107.061 74.0948L107.083 74.1172ZM75.2128 49.2414H90.6672C95.5372 50.874 100.323 52.1041 102.683 52.708V56.3424H82.5989C80.9327 51.4555 77.2648 49.9123 75.1848 49.219L75.2128 49.2414ZM38.0081 85.7918L36.5656 86.4907C36.6103 86.3398 36.5656 86.3342 36.4034 84.8134C37.3718 83.8545 38.4621 83.0274 39.6464 82.3532C38.8748 83.0968 38.0976 84.1424 38.0193 84.9308C37.9889 85.2168 37.9852 85.5051 38.0081 85.7918ZM40.5522 81.8779C41.6697 82.3202 42.8241 82.6626 44.002 82.9011C48.7938 83.8684 60.0883 83.6056 60.0883 83.2534V83.1192C62.2241 83.1751 64.9471 84.9699 66.7252 84.9699C67.9888 84.9699 68.0727 83.9131 67.631 82.7334C69.4175 82.3162 71.1283 81.6239 72.7023 80.6814C74.0369 80.634 75.3732 80.6863 76.7001 80.8379C76.7001 80.9274 76.6386 81.0224 76.605 81.1119C75.9397 82.9123 73.3565 85.9037 71.6847 86.0211C71.5281 86.0211 38.2933 84.791 38.2765 84.791C38.5002 83.8293 39.7079 82.4482 40.5522 81.8835V81.8779ZM20.1439 55.5708C21.6256 53.3174 26.1993 53.2112 29.8224 53.2112C34.4662 53.2116 39.1064 53.4655 43.7225 53.9716C47.0437 54.4469 47.2506 54.5308 48.011 58.098L41.6425 58.2378C41.4339 58.2429 41.2293 58.2955 41.0441 58.3916C40.859 58.4878 40.6983 58.625 40.5742 58.7927C40.4502 58.9605 40.3661 59.1543 40.3283 59.3595C40.2906 59.5647 40.3002 59.7758 40.3565 59.9767L40.8709 61.8666C37.5011 61.3931 34.1075 61.1094 30.7059 61.0167C27.6418 60.8937 23.2974 60.8154 20.2948 61.4584C20.2756 61.4621 20.2585 61.4733 20.2475 61.4896C20.2365 61.5058 20.2324 61.5258 20.2361 61.5451C20.2398 61.5644 20.251 61.5814 20.2673 61.5924C20.2836 61.6034 20.3035 61.6075 20.3228 61.6038C23.2023 61.0447 27.7704 61.1733 30.6947 61.3074C33.2499 61.4193 38.3604 61.71 40.9324 62.0846L42.375 67.3349C38.8189 66.7758 35.2013 68.4084 34.1278 71.8079C30.9966 71.5899 23.18 70.6338 18.2931 71.5955C18.2865 71.5968 18.2801 71.5994 18.2745 71.6033C18.2688 71.6071 18.264 71.6121 18.2604 71.6178C18.2567 71.6236 18.2543 71.63 18.2532 71.6368C18.2521 71.6435 18.2524 71.6504 18.254 71.657C18.254 71.7856 18.4106 71.6067 20.2837 71.4948C24.2423 71.2488 30.348 71.7856 34.0551 72.054C33.1772 75.3137 34.5583 78.1485 37.4099 80.1837C30.1402 79.4857 22.8395 79.1629 15.5366 79.2164C15.4731 74.5869 15.8834 69.9631 16.7611 65.4171C17.734 60.6533 19.4897 56.566 20.1439 55.5708ZM38.1311 24.5501C46.697 22.4198 58.081 20.748 71.7685 19.1545C71.7685 30.5272 71.7238 38.3607 71.7685 46.127C68.5591 39.8759 69.8731 31.1982 62.8671 31.5896C62.0196 31.6315 61.1895 31.8455 60.4273 32.2183C59.665 32.5912 58.9866 33.1152 58.4332 33.7586C57.8799 34.4019 57.4632 35.151 57.2085 35.9604C56.9537 36.7699 56.8663 37.6226 56.9515 38.4669C56.9851 38.8807 57.0186 39.2665 57.069 39.6299C56.3756 40.6251 56.6608 42.3473 57.7679 43.4376C58.1338 45.011 58.1624 46.6441 57.8517 48.2293C57.2926 48.425 56.8173 48.6375 56.3309 48.8668C50.0966 48.8668 45.0141 48.8668 38.1367 48.4698C38.1479 41.7043 38.1479 32.4618 38.1311 24.5501ZM37.7677 48.4474C31.6173 48.0616 16.0398 46.8539 11.5724 42.5206C10.9991 42.0236 10.5524 41.3972 10.2695 40.6932C9.98652 39.9893 9.87539 39.228 9.9453 38.4725C10.1913 36.5435 11.9414 35.0003 13.5517 33.8988C15.956 33.8988 25.601 33.8988 28.0276 33.8597C36.8563 33.6416 34.5471 31.215 36.8675 24.8688L37.7565 24.6396C37.7453 32.5681 37.7398 41.5924 37.7677 48.4474ZM76.4037 40.0996C76.3199 38.1929 79.1994 37.0802 81.0557 36.5882C87.5081 34.8773 96.0908 34.251 102.683 34.2958V48.7773C97.2735 47.536 92.008 45.7353 86.9713 43.404C85.2516 42.6632 83.59 41.7941 82.0006 40.8041C81.9814 40.7947 81.9595 40.7926 81.9389 40.798C81.9182 40.8034 81.9002 40.8161 81.888 40.8336C81.8759 40.8512 81.8704 40.8725 81.8726 40.8938C81.8748 40.915 81.8845 40.9347 81.9 40.9494C83.4577 42.0129 85.1105 42.9301 86.8371 43.6892C91.8991 46.0745 97.2149 47.8789 102.683 49.068V52.4228C97.8912 51.1256 76.6553 45.6182 76.4037 40.0996ZM102.683 33.9994C96.0516 33.9547 87.4522 34.5586 80.9774 36.3031C78.9478 36.8622 76.0403 38.014 76.1018 40.1052C76.1969 43.4152 82.9679 46.5631 89.8397 48.9338H74.2846C73.4012 48.6431 72.6072 47.6031 72.1152 46.8036C72.1432 40.6922 72.1432 37.8183 72.1152 19.1265C90.6951 17.6504 99.96 18.0642 102.683 18.0083V33.9994ZM74.3182 64.1926C69.0903 63.7397 66.3394 65.4227 62.0173 65.9986L62.9454 70.0075C61.8943 70.617 60.7984 71.2991 59.7528 71.9589L45.3495 72.4006C44.9959 72.409 44.6486 72.3054 44.3574 72.1046C44.0662 71.9037 43.8459 71.6159 43.7281 71.2824C49.694 71.1202 58.3102 70.7903 59.1713 70.7568C59.1891 70.7568 59.2062 70.7497 59.2187 70.7371C59.2313 70.7245 59.2384 70.7075 59.2384 70.6897C59.2384 70.6719 59.2313 70.6548 59.2187 70.6422C59.2062 70.6297 59.1891 70.6226 59.1713 70.6226C55.8165 70.712 49.4927 70.8686 43.6721 71.0811C41.061 61.5758 41.184 62.0567 41.2008 62.0008C41.2021 61.9816 41.1987 61.9624 41.191 61.9449C41.1832 61.9273 41.1712 61.912 41.1561 61.9001L40.5969 59.8928C40.5463 59.7259 40.5355 59.5495 40.5653 59.3777C40.595 59.2058 40.6646 59.0433 40.7684 58.9032C40.8721 58.763 41.0072 58.649 41.1629 58.5704C41.3186 58.4918 41.4905 58.4506 41.6649 58.4503L56.2023 58.1372C55.9852 57.1087 55.6552 56.1074 55.2182 55.1514C54.9946 54.5923 55.4363 54.6538 55.5984 54.9893C56.1322 55.9801 56.5398 57.0339 56.8117 58.126L58.9476 58.0757C59.2889 58.0736 59.6208 58.1867 59.8897 58.3968C60.1586 58.6068 60.3488 58.9015 60.4293 59.2331L61.8495 65.3556C65.154 64.8915 68 63.7453 71.4219 63.5775C72.4674 59.4567 73.4124 55.0787 76.7001 52.3949C77.0579 52.1097 77.2983 52.4284 76.9293 52.708C75.1736 54.0555 74.3965 55.8503 73.7255 57.7402C72.9763 59.8425 72.6072 61.8778 72.1543 63.4936C72.9022 63.4697 73.6507 63.5128 74.3909 63.6223C75.2184 63.7676 74.7599 64.2149 74.3182 64.1814V64.1926ZM59.339 72.2217C57.2199 73.5636 55.1176 74.9223 52.9426 76.1356C51.4273 75.0789 50.1469 73.983 48.3185 72.5516L59.339 72.2217ZM48.2514 58.0645C48.1284 57.4606 48.011 56.9462 47.8936 56.5213H49.571C49.4088 57.0077 49.2635 57.5165 49.1405 58.0477L48.2514 58.0645ZM60.2057 33.4235C60.0585 34.3429 60.1119 35.2832 60.3622 36.18C60.407 36.3366 60.6194 36.0738 61.5867 35.9788C62.7564 35.8879 63.9198 36.2209 64.8642 36.917C65.8086 37.613 66.4712 38.6255 66.7308 39.7697L66.1381 39.8312C65.8921 37.9469 64.3992 36.756 63.102 37.0691C61.8048 37.3822 60.9773 39.0316 61.6427 40.9215C61.4155 40.9339 61.1982 41.018 61.022 41.1619C60.5635 39.792 59.1881 38.6738 57.9524 38.9925V38.2768C58.3766 37.584 58.9665 37.0075 59.6689 36.5994C59.6811 36.5935 59.691 36.5837 59.6971 36.5716C59.7032 36.5594 59.7051 36.5456 59.7025 36.5323C59.6181 35.4707 59.7907 34.4043 60.2057 33.4235ZM62.7274 49.0792C62.6183 48.5151 62.4554 47.9628 62.2409 47.4298C64.2594 47.9106 66.1213 46.4513 66.9768 44.4999C67.1948 45.2659 67.9385 47.3291 69.7333 48.0672C69.4314 48.8164 67.849 54.3798 65.4615 54.7768C63.3704 55.1346 61.3631 51.5506 61.2792 47.6143L61.8887 47.3236H61.9502C62.2234 47.8882 62.4352 48.4805 62.582 49.0904C62.5842 49.1097 62.594 49.1273 62.6092 49.1394C62.6244 49.1514 62.6438 49.1569 62.6631 49.1547C62.6823 49.1525 62.6999 49.1427 62.712 49.1275C62.7241 49.1123 62.7296 49.0929 62.7274 49.0736V49.0792ZM67.4241 42.3193C67.1613 42.1907 67.4968 43.1357 66.6245 44.7795C65.0813 47.7149 61.4078 48.6934 59.1937 44.2204C60.6754 44.444 61.5252 43.0406 61.1003 41.4247C61.1825 41.3406 61.2808 41.2739 61.3894 41.2288C61.4979 41.1836 61.6145 41.1609 61.7321 41.1619C61.9367 41.6555 62.2592 42.0913 62.6715 42.4311C64.3153 43.7619 66.3114 42.4311 66.1604 40.0828L66.7811 40.0157C66.8034 40.135 66.8202 40.2524 66.8314 40.3679C66.8314 40.4462 66.9656 40.4518 66.9991 40.3679C67.3346 39.6075 68.0279 39.5013 68.4193 40.0604C69.1238 41.0501 68.3355 42.761 67.4241 42.3137V42.3193ZM63.1523 37.2871C65.8417 36.6385 67.1277 42.0006 64.4327 42.6492C64.1485 42.7084 63.8543 42.7003 63.5737 42.6256C63.2931 42.5508 63.0339 42.4115 62.8168 42.2187C61.1171 40.86 61.3519 37.7344 63.1523 37.2983V37.2871ZM60.1833 43.8178C59.8396 43.9995 59.439 44.0415 59.0651 43.9352C58.419 42.4437 58.0405 40.8501 57.9468 39.2273C60.133 38.5564 62.1682 42.7107 60.1833 43.829V43.8178ZM57.6672 42.9679C57.3158 42.569 57.0784 42.0827 56.98 41.5602C56.8816 41.0377 56.9258 40.4984 57.1081 39.9989C57.2646 41.1507 57.4771 42.0957 57.6672 42.9791V42.9679ZM55.7885 49.1184C52.8702 50.6073 50.6592 53.1901 49.6381 56.3032H47.8377C47.2226 54.2065 46.4678 54.0667 43.756 53.6753C42.2967 53.4628 40.2447 53.2895 38.0976 53.1553V48.7214C43.6889 49.0625 48.1676 49.1016 55.7885 49.1351V49.1184ZM42.4644 67.648L43.4429 71.2153C43.5514 71.62 43.7905 71.9776 44.1232 72.2324C44.4559 72.4872 44.8634 72.625 45.2824 72.6243L47.86 72.546C52.2548 75.9679 54.0832 77.7795 59.8255 79.8818V83.108C55.5817 83.3093 48.2514 83.3932 44.0524 82.5489C29.1179 79.3786 33.1437 66.0712 42.4644 67.648ZM60.0883 82.8843V80.4074L61.5196 80.3403C61.8551 81.5592 61.8439 82.465 61.5196 83.108C61.0531 82.977 60.5726 82.9019 60.0883 82.8843ZM63.0293 82.8284C63.178 82.409 63.2775 81.9737 63.3256 81.5312C63.3256 81.4641 63.5102 81.4921 63.5102 81.5704C63.5365 82.0378 63.4299 82.503 63.2026 82.9123C63.1635 82.9738 63.0069 82.8899 63.0293 82.8452V82.8284ZM64.0861 83.1751C64.2258 82.7278 64.2762 82.2861 64.3824 81.8779C64.3824 81.8108 64.5445 81.8499 64.5501 81.917C64.6011 82.3862 64.4928 82.8589 64.2426 83.259C64.2202 83.3093 64.0637 83.2422 64.0861 83.1751ZM65.1428 83.5218C65.2929 83.103 65.3905 82.6673 65.4336 82.2246C65.4336 82.1519 65.6013 82.1742 65.5957 82.2246C65.6153 82.6931 65.5091 83.1584 65.2882 83.5721C65.2491 83.6504 65.1093 83.5833 65.1428 83.5218ZM73.116 80.4297C74.7934 79.373 76.387 77.936 77.153 76.0629L77.276 75.9903C77.2921 77.5446 77.1212 79.0951 76.7672 80.6087C75.5558 80.4634 74.3358 80.4036 73.116 80.4297ZM67.5247 82.4594C67.3547 82.0921 67.122 81.7572 66.837 81.4697C69.7501 80.044 73.021 77.595 74.9388 75.0006C74.9479 74.982 74.9503 74.9608 74.9455 74.9406C74.9408 74.9204 74.9291 74.9025 74.9126 74.89C74.8961 74.8774 74.8758 74.871 74.855 74.8718C74.8343 74.8726 74.8145 74.8806 74.799 74.8943C72.5383 77.5641 69.7319 79.7185 66.5686 81.2125C65.6974 80.5285 64.6382 80.1266 63.5325 80.0607C62.3851 80.0308 61.2369 80.0681 60.0939 80.1726V79.8259C60.092 79.802 60.0838 79.779 60.07 79.7593C60.0562 79.7396 60.0374 79.724 60.0156 79.7141C57.5968 78.8714 55.2981 77.7173 53.1774 76.281C59.4341 72.7641 66.0039 67.6815 70.2309 67.3349C74.5866 67.0833 77.4269 70.1305 77.3487 73.8711C77.2033 80.1446 67.6142 82.3699 67.5191 82.4594H67.5247ZM102.683 8.36882V17.4715C94.296 17.5777 86.5743 17.4715 72.1152 18.791C72.1152 15.6767 72.1152 12.3051 72.0872 8.36882H102.683ZM71.7909 8.32409V18.8414C59.7975 19.9317 46.1044 22.28 38.1535 24.237C38.1535 15.7102 38.12 8.79935 38.1144 8.32409H71.7909ZM5.04171 8.25699H37.7957C37.7957 11.1757 37.7957 17.3261 37.7565 24.332C35.3299 24.9359 32.7803 25.6404 30.0517 26.4847C28.7601 31.5169 28.8943 31.9362 28.1115 32.9818C36.3028 32.7022 33.8762 28.889 35.7269 25.154L36.6327 24.9191C34.2731 31.2765 36.5768 33.3508 28.022 33.5969C25.601 33.6584 16.1461 33.6919 13.848 33.6863C14.1947 33.4571 14.5525 33.239 14.916 33.0265C19.5903 33.0657 21.5305 33.0265 21.5529 33.0265C22.1735 31.9586 22.14 30.9633 22.6991 29.012C18.5112 30.8459 10.2305 33.9827 9.66574 38.4334C9.5905 39.2329 9.70582 40.039 10.0023 40.7854C10.2987 41.5318 10.7678 42.1974 11.3711 42.7275C15.9336 47.1334 31.4663 48.3188 37.7677 48.7158V53.1553C34.8546 52.982 31.7906 52.8869 29.7945 52.8869C26.4006 52.8869 21.4746 52.9316 19.8419 55.3862C19.6538 55.6861 19.4857 55.998 19.3387 56.32H5.04171V8.25699ZM5.04171 77.8522V56.5213H19.266C16.051 63.3874 15.3521 70.2368 15.2738 77.8522H5.04171ZM15.4248 79.4457C22.9017 79.3868 30.3765 79.7227 37.818 80.4521C38.565 80.9465 39.3547 81.3731 40.1776 81.7269C38.6429 82.3672 37.2961 83.3869 36.2636 84.6903L3.67743 83.4714C4.98021 81.8388 10.3926 80.016 15.4024 79.4457H15.4248ZM5.63998 87.8327C5.39956 87.8327 5.25418 87.7544 5.13677 87.3965C5.01935 87.0387 4.80688 86.077 4.7286 85.6576L7.74791 85.7695C7.74791 86.4907 7.79823 87.2064 7.83737 87.9277L5.63998 87.8327ZM7.47394 85.529C3.86754 85.3893 3.96259 85.4508 3.7613 85.2271C3.52109 84.7356 3.46361 84.1747 3.59915 83.6448L36.2636 84.8301C36.3251 85.3389 36.3699 85.8477 36.4202 86.351C36.4254 86.386 36.4226 86.4217 36.412 86.4554C36.4015 86.4892 36.3834 86.5201 36.3592 86.5459C36.335 86.5717 36.3053 86.5917 36.2723 86.6044C36.2393 86.6172 36.2038 86.6223 36.1686 86.6193L7.47394 85.529ZM14.3177 102.146C14.0381 102.32 14.0549 102.281 11.5668 102.214C10.6722 102.214 10.0404 102.286 9.88939 101.716C9.38341 99.4076 9.01005 97.0722 8.77112 94.7212C8.41476 91.7486 8.15928 88.7649 8.00511 85.7751L12.9199 85.9596C12.9199 88.6266 13.1491 92.8313 13.1827 93.2283C13.3635 95.7464 13.6789 98.253 14.1276 100.737C14.1283 100.749 14.1315 100.76 14.1368 100.77C14.1422 100.78 14.1496 100.788 14.1587 100.795C14.1677 100.802 14.1781 100.807 14.1892 100.809C14.2002 100.811 14.2117 100.811 14.2227 100.809C14.2338 100.807 14.2441 100.802 14.2531 100.795C14.2621 100.788 14.2695 100.779 14.2749 100.769C14.2802 100.759 14.2832 100.748 14.2839 100.737C14.2845 100.726 14.2827 100.714 14.2786 100.704C14.1301 99.8649 14.0034 99.0222 13.8984 98.1766C14.245 97.7405 15.3074 96.4992 15.3521 96.4265L18.8858 96.6725C18.8243 96.7676 14.4966 102.018 14.2953 102.141L14.3177 102.146ZM13.1994 88.3694L15.6261 88.4645C15.2515 97.4665 15.3912 93.3066 15.2962 96.1022C15.2962 96.3315 15.2962 96.3594 13.8648 97.8691C13.5741 95.7444 13.2777 92.1659 13.1883 88.3638L13.1994 88.3694ZM18.9585 96.4321L15.4024 96.2644C15.4528 96.1078 15.4024 96.4377 15.8497 88.4365L19.4338 88.5763C19.4338 88.5763 18.9753 96.2923 18.9585 96.4321ZM13.1883 88.1234C13.1883 87.9892 13.1547 86.5522 13.1491 85.9707L36.1518 86.843C36.8013 86.6255 37.4316 86.3543 38.0361 86.0323C38.12 86.5299 38.338 86.9325 38.8245 86.9492L59.8646 87.7544C59.8944 88.4738 59.928 89.1951 59.9653 89.9182L13.1883 88.1234ZM67.0159 103.992C66.7308 104.372 66.4176 104.361 65.9368 104.338L62.6379 104.182C62.4787 104.178 62.3267 104.114 62.213 104.003C62.0935 103.882 62.0186 103.724 62.0005 103.555C60.8822 98.8252 60.3231 92.658 60.1162 87.76L64.9807 87.9501C64.9807 92.4791 65.3273 98.4674 66.2499 102.767C66.2467 102.779 66.2462 102.791 66.2485 102.803C66.2508 102.815 66.2558 102.826 66.2631 102.835C66.2704 102.845 66.2799 102.853 66.2906 102.858C66.3014 102.863 66.3133 102.866 66.3254 102.866C66.3374 102.866 66.3493 102.863 66.3601 102.858C66.3709 102.853 66.3803 102.845 66.3876 102.835C66.3949 102.826 66.3999 102.815 66.4022 102.803C66.4045 102.791 66.4041 102.779 66.4009 102.767C66.2834 102.007 66.1716 101.246 66.071 100.486C66.6961 99.84 67.2877 99.1626 67.8434 98.4562L71.1088 98.6239C71.0808 98.6686 71.4107 98.1151 67.0159 103.992ZM65.3385 90.3599L68.095 90.455L67.726 98.0927C67.7206 98.2028 67.6771 98.3075 67.603 98.3891L66.0542 100.145C65.6474 96.8976 65.4085 93.6317 65.3385 90.3599ZM71.2262 98.3611L67.9273 98.2828C67.972 98.1487 67.9273 98.6742 68.3411 90.455L71.8188 90.5724C71.8188 90.5724 71.2374 98.2828 71.2206 98.3611H71.2262ZM74.2063 90.2313C74.1812 90.2798 74.1463 90.3227 74.104 90.3573C74.0617 90.3919 74.0128 90.4175 73.9603 90.4326C73.8709 90.4606 65.3441 90.1251 65.3329 90.1251C65.3329 89.4038 65.2994 88.6825 65.2938 87.9613L71.7182 88.2017C72.1867 88.2204 72.6518 88.1143 73.0657 87.8942C73.1887 87.8942 72.6128 87.8438 74.2846 87.9557C74.3675 87.9638 74.4452 87.9997 74.5051 88.0575C74.565 88.1154 74.6036 88.1918 74.6145 88.2744C74.512 88.9337 74.3739 89.587 74.2008 90.2313H74.2063ZM76.2248 85.9092C76.2701 85.9301 76.3105 85.9603 76.3433 85.9979C76.3761 86.0355 76.4005 86.0796 76.4149 86.1273C76.4485 86.2391 76.1242 87.7432 76.0683 88.006C75.595 88.6951 75.0658 89.344 74.4859 89.9462C74.6261 89.3946 74.7289 88.8342 74.7934 88.2688C74.7745 88.1473 74.716 88.0354 74.6271 87.9505C74.5381 87.8656 74.4236 87.8124 74.3014 87.7991L73.3173 87.76C74.0574 87.1713 74.7579 86.5343 75.4141 85.8533C76.1801 85.8869 76.1409 85.8757 76.2192 85.9092H76.2248ZM73.3621 87.4077C72.9046 87.7915 72.3204 87.9909 71.7238 87.9669L38.8357 86.7144C38.1926 86.7144 38.1982 85.5961 38.2765 84.9643L71.3436 86.2503C73.4515 86.3454 76.1745 83.0018 76.8455 81.2181C77.4046 79.619 77.4996 77.567 77.5388 75.8616C77.9064 75.6282 78.2593 75.3724 78.5955 75.0956C78.5788 81.1678 78.0867 83.4826 73.3565 87.4077H73.3621ZM78.7297 78.3218C78.7968 77.3266 78.8192 76.2027 78.8136 74.8776C82.5262 71.6849 83.4768 66.6136 83.4768 62.1629C83.5092 60.2516 83.2374 58.3472 82.6716 56.5213H102.739V68.7215C101.291 68.5817 99.8034 68.4643 99.2051 68.4196C99.2051 68.4196 89.0849 67.9555 85.2268 68.9787C81.9503 69.8454 81.9391 74.7378 84.5615 76.3649C84.1091 76.9734 83.7212 77.6274 83.4041 78.3162L78.7297 78.3218ZM84.6733 76.253C82.1852 74.6763 82.2019 70.0131 85.266 69.208C88.0616 68.4755 95.3304 68.4364 98.2658 68.565L105.16 69.1521C103.086 69.8957 101.649 74.7434 102.817 77.1533C102.31 77.0077 101.792 76.903 101.268 76.8401C99.9488 76.6612 85.7692 75.4088 84.6677 76.253H84.6733ZM100.916 96.1414C99.4679 96.0463 98.6013 95.079 98.5621 94.0111C98.4224 92.5294 98.9927 88.4757 99.0486 88.3862C99.2627 88.3739 99.4774 88.3739 99.6916 88.3862L100.105 82.9514C100.938 82.9179 101.833 83.4211 102.778 83.4379L102.364 88.6881L102.923 88.7832L103.192 84.8693C103.421 84.8693 103.779 84.9587 103.863 85.1712L103.6 88.8447C104.366 89.0068 104.271 88.649 104.159 91.3049C103.986 94.341 103.986 96.3427 100.91 96.1414H100.916ZM107.833 95.2691C107.865 96.9834 107.717 98.6963 107.391 100.38C106.731 103.259 105.624 103.142 104.12 100.614C104.653 99.0306 104.976 97.384 105.082 95.7164C105.182 94.5982 105.523 89.0628 105.574 84.6568C107.273 87.9445 107.861 91.5788 107.833 95.2691Z" fill="#2C6822"/>
<path d="M89.085 86.0266L88.8054 88.2911C88.802 88.3301 88.8133 88.3689 88.8371 88.4C88.8609 88.431 88.8955 88.452 88.934 88.4589L90.7679 88.7049C90.7812 88.7071 90.7947 88.7067 90.8077 88.7036C90.8208 88.7006 90.8331 88.695 90.844 88.6873C90.8549 88.6795 90.8642 88.6696 90.8713 88.6583C90.8784 88.6469 90.8832 88.6342 90.8854 88.621C90.8876 88.6078 90.8871 88.5943 90.8841 88.5812C90.8811 88.5682 90.8755 88.5558 90.8677 88.5449C90.86 88.534 90.8501 88.5248 90.8387 88.5177C90.8274 88.5106 90.8147 88.5058 90.8015 88.5036L89.1241 88.1793L89.2192 86.0378C89.2206 86.02 89.215 86.0024 89.2034 85.9887C89.1919 85.9751 89.1754 85.9666 89.1576 85.9651C89.1399 85.9637 89.1222 85.9693 89.1086 85.9808C89.0949 85.9924 89.0864 86.0088 89.085 86.0266ZM53.7422 30.2868C54.0578 29.9716 54.2905 29.5834 54.4198 29.1567C54.5491 28.7299 54.571 28.2778 54.4834 27.8405C54.3959 27.4033 54.2016 26.9944 53.9179 26.6504C53.6343 26.3063 53.2699 26.0377 52.8574 25.8684C52.4449 25.6991 51.9969 25.6343 51.5533 25.6799C51.1097 25.7255 50.6842 25.88 50.3147 26.1297C49.9453 26.3793 49.6432 26.7164 49.4354 27.111C49.2276 27.5056 49.1206 27.9454 49.1238 28.3913C49.1302 28.9235 49.2931 29.4421 49.5922 29.8824C49.8913 30.3227 50.3134 30.6652 50.8058 30.8673C51.2982 31.0694 51.8392 31.1221 52.3614 31.0189C52.8835 30.9157 53.3638 30.661 53.7422 30.2868ZM53.6416 26.5518C53.9373 26.849 54.1553 27.2145 54.2763 27.6159C54.3974 28.0173 54.4178 28.4424 54.3358 28.8535C54.2538 29.2647 54.0719 29.6494 53.8061 29.9737C53.5403 30.2979 53.1988 30.5518 52.8117 30.7129C52.4246 30.874 52.0038 30.9373 51.5864 30.8974C51.169 30.8574 50.7679 30.7153 50.4184 30.4837C50.0689 30.2521 49.7818 29.938 49.5823 29.5692C49.3829 29.2004 49.2772 28.7882 49.2748 28.3689C49.2814 27.866 49.4357 27.376 49.7185 26.9601C50.0013 26.5441 50.4001 26.2203 50.8653 26.0291C51.3306 25.8379 51.8417 25.7876 52.3353 25.8845C52.8289 25.9814 53.2832 26.2212 53.6416 26.5741V26.5518Z" fill="#2C6822"/>
<path d="M51.8244 30.2868C52.1365 30.2857 52.4436 30.2077 52.7185 30.0599C52.9934 29.912 53.2277 29.6986 53.4006 29.4388C53.5735 29.1789 53.6797 28.8804 53.71 28.5697C53.7402 28.259 53.6934 27.9457 53.5738 27.6573C53.4542 27.369 53.2654 27.1145 53.0242 26.9165C52.7829 26.7184 52.4966 26.5827 52.1905 26.5216C51.8844 26.4604 51.568 26.4755 51.2691 26.5656C50.9702 26.6557 50.6981 26.818 50.4769 27.0382C50.2069 27.303 50.0223 27.6425 49.9468 28.0131C49.8713 28.3837 49.9084 28.7683 50.0533 29.1176C50.1982 29.467 50.4443 29.7649 50.7599 29.9733C51.0755 30.1816 51.4462 30.2908 51.8244 30.2868ZM53.4626 27.7371L51.8244 30.1302C51.5485 30.1244 51.2774 30.0576 51.0304 29.9345L52.993 27.0662C53.2033 27.2491 53.3647 27.4817 53.4626 27.7427V27.7371ZM51.6175 26.6188C51.9071 26.5821 52.2012 26.6187 52.473 26.7251L50.544 29.5207C50.3464 29.3076 50.206 29.0479 50.1358 28.7659L51.6175 26.6188ZM68.8667 30.2868C69.1756 29.9691 69.4017 29.5805 69.5253 29.155C69.6489 28.7295 69.6661 28.2802 69.5755 27.8465C69.4848 27.4129 69.2891 27.0081 69.0055 26.6677C68.7218 26.3273 68.3589 26.0618 67.9487 25.8945C67.5385 25.7271 67.0934 25.663 66.6526 25.7079C66.2119 25.7527 65.7888 25.9051 65.4207 26.1516C65.0526 26.3982 64.7506 26.7313 64.5413 27.1218C64.332 27.5123 64.2218 27.9482 64.2203 28.3913C64.224 28.9281 64.3865 29.4518 64.6874 29.8963C64.9884 30.3408 65.4142 30.6862 65.9112 30.889C66.4083 31.0917 66.9542 31.1427 67.4802 31.0356C68.0062 30.9284 68.4887 30.6678 68.8667 30.2868ZM66.9489 25.8137C67.454 25.8126 67.9482 25.9612 68.3689 26.2408C68.7896 26.5205 69.1179 26.9185 69.3125 27.3846C69.5071 27.8508 69.5591 28.3642 69.4621 28.8599C69.365 29.3556 69.1232 29.8115 68.7672 30.1698C68.4112 30.5282 67.9569 30.773 67.4619 30.8733C66.9668 30.9736 66.4531 30.9249 65.9857 30.7334C65.5182 30.5419 65.1181 30.2161 64.8357 29.7972C64.5533 29.3784 64.4015 28.8852 64.3993 28.3801C64.3978 28.0441 64.4626 27.7111 64.59 27.4001C64.7174 27.0892 64.9049 26.8064 65.1417 26.568C65.3786 26.3296 65.6601 26.1403 65.9702 26.0109C66.2803 25.8814 66.6129 25.8144 66.9489 25.8137Z" fill="#2C6822"/>
<path d="M68.2909 29.7276C68.6259 29.3674 68.8083 28.8914 68.7997 28.3995C68.791 27.9076 68.5921 27.4382 68.2446 27.09C67.8971 26.7418 67.4281 26.5418 66.9362 26.5322C66.4444 26.5225 65.9679 26.7039 65.607 27.0382C63.801 28.8163 66.5184 31.528 68.2909 29.7276ZM68.5872 27.7371L66.9489 30.1302C66.6732 30.1239 66.4021 30.0571 66.155 29.9345L68.1343 27.0718C68.3394 27.2537 68.4952 27.4845 68.5872 27.7427V27.7371ZM66.7477 26.6189C67.0372 26.5791 67.3321 26.6158 67.6031 26.7251L65.6685 29.5208C65.4729 29.3062 65.3328 29.0471 65.2604 28.7659L66.7477 26.6189ZM80.1612 26.4735C79.842 26.7873 79.6055 27.1752 79.4727 27.6027C79.3399 28.0301 79.3149 28.4838 79.4001 28.9232C79.4852 29.3627 79.6779 29.7742 79.9607 30.1211C80.2436 30.468 80.608 30.7395 81.0213 30.9113C81.4346 31.0831 81.884 31.15 82.3295 31.1059C82.7749 31.0618 83.2025 30.9082 83.5741 30.6586C83.9457 30.4091 84.2498 30.0715 84.4591 29.6758C84.6685 29.2802 84.7767 28.8389 84.7741 28.3913C84.7586 27.864 84.5912 27.3524 84.2919 26.9179C83.9927 26.4834 83.5744 26.1445 83.0873 25.942C82.6002 25.7395 82.0649 25.6819 81.5459 25.7762C81.0268 25.8705 80.546 26.1126 80.1612 26.4735ZM79.5294 28.3913C79.5133 28.0461 79.5673 27.7011 79.6883 27.3774C79.8093 27.0536 79.9947 26.7578 80.2333 26.5077C80.4719 26.2577 80.7587 26.0587 81.0765 25.9227C81.3942 25.7867 81.7362 25.7166 82.0819 25.7166C82.4275 25.7166 82.7695 25.7867 83.0872 25.9227C83.405 26.0587 83.6918 26.2577 83.9304 26.5077C84.1691 26.7578 84.3545 27.0536 84.4754 27.3774C84.5964 27.7011 84.6505 28.0461 84.6343 28.3913C84.6231 31.7573 79.5406 31.6958 79.5294 28.3913Z" fill="#2C6822"/>
<path d="M80.7316 27.0437C80.376 27.4024 80.1752 27.8862 80.1724 28.3913C80.1726 28.8309 80.3252 29.2569 80.6042 29.5966C80.8832 29.9364 81.2713 30.169 81.7025 30.2548C82.1337 30.3406 82.5813 30.2743 82.969 30.0672C83.3568 29.8601 83.6609 29.525 83.8294 29.1189C83.9979 28.7128 84.0204 28.2609 83.8932 27.8401C83.7659 27.4193 83.4967 27.0556 83.1315 26.8109C82.7662 26.5662 82.3275 26.4557 81.8899 26.4982C81.4523 26.5406 81.043 26.7334 80.7316 27.0437ZM80.3849 28.8106L81.8722 26.6468C82.1617 26.6103 82.4558 26.6468 82.7277 26.753L80.7931 29.5487C80.5998 29.3389 80.4598 29.0858 80.3849 28.8106ZM82.0623 30.1357C81.7866 30.1291 81.5156 30.0623 81.2683 29.94L83.2309 27.0717C83.4405 27.2531 83.6018 27.4836 83.7005 27.7427L82.0623 30.1357ZM99.1214 30.2867C99.4971 29.9071 99.7521 29.4249 99.8542 28.9007C99.9564 28.3765 99.9012 27.8338 99.6955 27.341C99.4899 26.8481 99.143 26.4271 98.6986 26.131C98.2542 25.8348 97.732 25.6768 97.198 25.6768C96.6639 25.6768 96.1418 25.8348 95.6974 26.131C95.253 26.4271 94.9061 26.8481 94.7005 27.341C94.4948 27.8338 94.4396 28.3765 94.5418 28.9007C94.6439 29.4249 94.8989 29.9071 95.2746 30.2867C95.527 30.5396 95.8268 30.7403 96.1568 30.8772C96.4869 31.0141 96.8407 31.0846 97.198 31.0846C97.5553 31.0846 97.9091 31.0141 98.2392 30.8772C98.5692 30.7403 98.869 30.5396 99.1214 30.2867ZM97.2092 25.8137C97.6282 25.8129 98.0409 25.9153 98.4108 26.112C98.7808 26.3086 99.0966 26.5934 99.3302 26.9412C99.5639 27.2889 99.7083 27.6889 99.7507 28.1057C99.793 28.5226 99.7319 28.9434 99.5729 29.331C99.4139 29.7186 99.1618 30.0611 98.8389 30.3281C98.516 30.5951 98.1323 30.7784 97.7218 30.8619C97.3112 30.9453 96.8864 30.9263 96.4849 30.8064C96.0834 30.6866 95.7177 30.4697 95.42 30.1749C95.0612 29.8196 94.816 29.3658 94.7155 28.871C94.6149 28.3762 94.6636 27.8627 94.8552 27.3956C95.0469 26.9284 95.3729 26.5287 95.7919 26.2471C96.211 25.9655 96.7043 25.8146 97.2092 25.8137Z" fill="#2C6822"/>
<path d="M98.5455 29.7276C98.7645 29.5057 98.9256 29.2333 99.0145 28.9344C99.1035 28.6355 99.1175 28.3194 99.0554 28.0138C98.9933 27.7082 98.857 27.4226 98.6585 27.1821C98.46 26.9416 98.2054 26.7537 97.9172 26.6348C97.6289 26.5159 97.3158 26.4698 97.0055 26.5005C96.6952 26.5311 96.3972 26.6376 96.1377 26.8106C95.8783 26.9836 95.6654 27.2178 95.5178 27.4924C95.3702 27.7671 95.2925 28.0739 95.2914 28.3857C95.2928 28.7621 95.4055 29.1297 95.6155 29.4422C95.8254 29.7546 96.1231 29.9979 96.4711 30.1414C96.8191 30.2849 97.2018 30.3222 97.571 30.2485C97.9401 30.1749 98.2792 29.9937 98.5455 29.7276ZM98.8419 27.7371L97.2092 30.1358C96.933 30.1327 96.6612 30.0657 96.4152 29.9401L98.3834 27.0717C98.5874 27.2558 98.7446 27.4858 98.8419 27.7427V27.7371ZM96.9967 26.6188C97.2863 26.5828 97.5802 26.6194 97.8522 26.7251L95.9232 29.5207C95.7238 29.3081 95.5815 29.0484 95.5094 28.7659L96.9967 26.6188ZM40.2504 42.4479C40.2934 42.8614 40.4128 43.2634 40.6027 43.6332C41.8663 46.1158 45.6349 45.9145 47.0774 44.6173C48.52 43.3201 48.1957 41.7769 48.1957 41.2625V33.9938C48.1548 33.5816 48.0352 33.1811 47.8434 32.814C46.7252 30.5775 44.4886 30.9633 43.6388 30.9465C42.8002 30.9337 41.9872 31.2354 41.36 31.7921C40.7329 32.3489 40.337 33.1205 40.2504 33.9547C40.2225 34.374 40.2225 42.1459 40.2504 42.4479ZM40.4461 33.9994C40.5307 33.2106 40.9054 32.4814 41.4975 31.9534C42.0895 31.4254 42.8567 31.1363 43.6499 31.1422C44.7011 31.1422 46.6748 30.8906 47.7092 32.9091C47.8721 33.26 47.9615 33.6406 47.972 34.0273C48.0168 34.5082 48.0112 39.8647 47.972 41.2569C47.972 42.1851 48.1733 43.4934 46.9544 44.5278C45.3721 45.9424 40.7369 45.8083 40.4517 42.4255C40.4237 42.1403 40.407 34.3908 40.4461 33.9994ZM27.3624 33.0041C28.531 31.5951 28.2067 29.75 29.3585 26.7027C26.9039 27.4631 24.8855 28.19 23.3143 28.8106C22.9397 30.488 22.5483 32.294 22.1178 33.0321C23.9909 33.0265 25.4837 33.0824 27.3624 33.0041Z" fill="#2C6822"/>
</svg>
