<svg width="1605" height="1711" viewBox="0 0 1605 1711" fill="none" xmlns="http://www.w3.org/2000/svg">
<path d="M694.479 183.432C698.529 215.022 717.969 219.972 717.969 219.972C749.739 222.132 738.579 193.782 738.579 193.782C705.999 128.532 626.529 150.222 626.529 150.222C626.529 150.222 690.069 151.842 694.479 183.432ZM1154.83 305.292C1200.37 242.922 1119.55 195.222 1119.55 195.222C1124.87 219.503 1124.87 244.65 1119.55 268.932C1115.23 328.062 1154.83 305.292 1154.83 305.292Z" fill="#2C6822"/>
<path d="M1567.48 362.712C1567.48 362.712 1477.48 135.012 1155.46 43.2116C833.44 -48.5884 589.9 142.212 589.9 142.212C898.42 43.2116 957.01 123.042 957.01 123.042C957.01 123.042 1009.75 183.072 1058.26 175.782C1106.77 168.492 1074.46 121.782 1074.46 121.782C1190.83 145.002 1209.91 213.132 1238.53 271.002C1267.15 328.872 1301.53 299.262 1334.29 266.682C1367.05 234.102 1401.52 273.162 1401.52 273.162C1430.8 313.712 1449.59 360.877 1456.22 410.453C1462.85 460.029 1457.1 510.475 1439.5 557.292C1379.83 722.172 1482.88 731.892 1482.88 731.892C1692.13 694.542 1567.48 362.712 1567.48 362.712ZM1286.59 227.712C1269.31 233.202 1260.58 202.242 1260.58 202.242C1258.57 198.151 1258.12 193.464 1259.33 189.069C1260.55 184.673 1263.33 180.875 1267.15 178.392C1286.95 169.392 1294.15 194.952 1294.15 194.952C1294.15 194.952 1303.87 222.582 1286.5 227.982L1286.59 227.712ZM1549.48 478.002C1551.71 478.019 1553.9 478.575 1555.87 479.62C1557.84 480.666 1559.53 482.172 1560.79 484.009C1562.05 485.846 1562.86 487.961 1563.13 490.175C1563.4 492.388 1563.13 494.634 1562.35 496.722C1557.67 514.722 1538.5 500.412 1538.5 500.412C1537.14 498.301 1536.35 495.875 1536.21 493.37C1536.06 490.864 1536.57 488.364 1537.67 486.11C1538.77 483.856 1540.44 481.926 1542.51 480.505C1544.58 479.085 1546.98 478.222 1549.48 478.002ZM1525.09 671.142C1525.09 671.142 1516.99 664.662 1525.09 644.142C1531.78 623.266 1536.69 601.859 1539.76 580.152C1550.02 544.872 1572.25 569.892 1572.25 569.892C1572.25 569.892 1588 594.822 1564.15 643.062C1540.3 691.302 1525.09 671.232 1525.09 671.232V671.142ZM571.63 496.002C571.82 496.002 572.004 495.926 572.139 495.791C572.274 495.656 572.35 495.473 572.35 495.282C572.35 495.091 572.274 494.908 572.139 494.773C572.004 494.637 571.82 494.562 571.63 494.562C571.439 494.562 571.255 494.637 571.12 494.773C570.985 494.908 570.91 495.091 570.91 495.282C570.91 495.473 570.985 495.656 571.12 495.791C571.255 495.926 571.439 496.002 571.63 496.002ZM651.37 554.502C650.517 555.291 649.582 555.985 648.58 556.572C648.465 556.672 648.384 556.806 648.35 556.954C648.316 557.103 648.33 557.258 648.39 557.398C648.45 557.538 648.553 557.656 648.684 557.734C648.815 557.812 648.968 557.846 649.12 557.832C661 554.592 649.93 545.142 649.12 538.842C649.12 537.492 646.06 538.842 652.54 549.462C652.862 550.324 652.922 551.262 652.714 552.158C652.506 553.054 652.038 553.87 651.37 554.502ZM663.43 526.692C662.797 529.84 662.797 533.083 663.43 536.232C663.538 536.38 663.68 536.501 663.845 536.585C664.009 536.668 664.19 536.712 664.375 536.712C664.559 536.712 664.74 536.668 664.905 536.585C665.069 536.501 665.211 536.38 665.32 536.232C665.732 533.246 665.732 530.217 665.32 527.232C665.95 525.612 663.61 525.252 663.43 526.692ZM626.08 527.682C625.333 531.167 625.744 534.801 627.25 538.032C627.422 538.195 627.632 538.314 627.862 538.376C628.091 538.439 628.333 538.444 628.565 538.39C628.796 538.337 629.011 538.227 629.19 538.07C629.369 537.913 629.506 537.714 629.59 537.492C629.834 534.177 629.437 530.846 628.42 527.682C628.301 527.476 628.131 527.305 627.925 527.186C627.72 527.068 627.487 527.005 627.25 527.005C627.012 527.005 626.779 527.068 626.574 527.186C626.368 527.305 626.198 527.476 626.08 527.682ZM616 520.122C617.98 518.232 626.62 512.022 628.42 510.312C630.22 508.602 626.08 506.172 614.74 518.862C613.93 519.672 615.19 521.022 616 520.122ZM670.27 516.162C668.099 513.181 665.264 510.747 661.99 509.052C660.73 508.512 659.74 510.762 661.09 511.302C662.44 511.842 671.26 521.112 670.27 516.162ZM619.24 578.982C619.78 579.612 620.68 578.982 620.32 578.172C617.543 574.556 616.025 570.131 616 565.572C626.08 576.642 637.15 573.942 632.83 572.772C626.572 571.391 620.832 568.271 616.27 563.772C614.02 561.612 612.67 571.242 619.24 578.982ZM564.07 506.802C563.735 506.802 563.415 506.934 563.179 507.171C562.942 507.407 562.81 507.727 562.81 508.062C562.81 508.396 562.942 508.716 563.179 508.953C563.415 509.189 563.735 509.322 564.07 509.322C564.404 509.322 564.724 509.189 564.96 508.953C565.197 508.716 565.33 508.396 565.33 508.062C565.33 507.727 565.197 507.407 564.96 507.171C564.724 506.934 564.404 506.802 564.07 506.802ZM574.42 516.252C574.801 516.252 575.168 516.1 575.438 515.83C575.708 515.56 575.86 515.194 575.86 514.812C575.86 514.43 575.708 514.063 575.438 513.793C575.168 513.523 574.801 513.372 574.42 513.372C574.038 513.372 573.671 513.523 573.401 513.793C573.131 514.063 572.98 514.43 572.98 514.812C572.98 515.194 573.131 515.56 573.401 515.83C573.671 516.1 574.038 516.252 574.42 516.252ZM576.04 504.192C576.327 504.115 576.582 503.946 576.764 503.71C576.945 503.474 577.044 503.184 577.044 502.887C577.044 502.589 576.945 502.299 576.764 502.063C576.582 501.827 576.327 501.658 576.04 501.582C575.752 501.658 575.497 501.827 575.315 502.063C575.134 502.299 575.035 502.589 575.035 502.887C575.035 503.184 575.134 503.474 575.315 503.71C575.497 503.946 575.752 504.115 576.04 504.192ZM590.35 506.172C590.659 506.092 590.934 505.912 591.13 505.66C591.326 505.407 591.432 505.096 591.432 504.777C591.432 504.457 591.326 504.146 591.13 503.894C590.934 503.641 590.659 503.461 590.35 503.382C590.04 503.461 589.765 503.641 589.569 503.894C589.373 504.146 589.267 504.457 589.267 504.777C589.267 505.096 589.373 505.407 589.569 505.66C589.765 505.912 590.04 506.092 590.35 506.172ZM593.59 530.652C596.2 529.752 592.78 526.782 592.06 529.122C591.79 529.842 592.69 531.012 593.59 530.652ZM589.27 519.942C589.484 519.942 589.69 519.856 589.842 519.704C589.994 519.553 590.08 519.346 590.08 519.132C590.08 518.917 589.994 518.711 589.842 518.559C589.69 518.407 589.484 518.322 589.27 518.322C589.055 518.322 588.849 518.407 588.697 518.559C588.545 518.711 588.46 518.917 588.46 519.132C588.46 519.346 588.545 519.553 588.697 519.704C588.849 519.856 589.055 519.942 589.27 519.942ZM563.26 523.002C563.021 523.002 562.792 523.096 562.623 523.265C562.454 523.434 562.36 523.663 562.36 523.902C562.36 524.14 562.454 524.369 562.623 524.538C562.792 524.707 563.021 524.802 563.26 524.802C563.498 524.802 563.727 524.707 563.896 524.538C564.065 524.369 564.16 524.14 564.16 523.902C564.16 523.663 564.065 523.434 563.896 523.265C563.727 523.096 563.498 523.002 563.26 523.002ZM572.71 559.632C572.487 559.698 572.291 559.835 572.152 560.021C572.013 560.208 571.938 560.434 571.938 560.667C571.938 560.899 572.013 561.126 572.152 561.312C572.291 561.499 572.487 561.635 572.71 561.702C572.932 561.635 573.128 561.499 573.267 561.312C573.406 561.126 573.481 560.899 573.481 560.667C573.481 560.434 573.406 560.208 573.267 560.021C573.128 559.835 572.932 559.698 572.71 559.632ZM561.1 535.332C560.718 535.332 560.351 535.483 560.081 535.753C559.811 536.023 559.66 536.39 559.66 536.772C559.66 537.154 559.811 537.52 560.081 537.79C560.351 538.06 560.718 538.212 561.1 538.212C561.481 538.212 561.848 538.06 562.118 537.79C562.388 537.52 562.54 537.154 562.54 536.772C562.54 536.39 562.388 536.023 562.118 535.753C561.848 535.483 561.481 535.332 561.1 535.332ZM574.42 523.002C574.233 522.95 574.036 522.943 573.846 522.98C573.655 523.017 573.476 523.097 573.322 523.215C573.168 523.332 573.043 523.484 572.957 523.658C572.871 523.831 572.826 524.023 572.826 524.217C572.826 524.411 572.871 524.602 572.957 524.776C573.043 524.949 573.168 525.101 573.322 525.219C573.476 525.336 573.655 525.417 573.846 525.454C574.036 525.491 574.233 525.483 574.42 525.432C574.686 525.359 574.92 525.2 575.088 524.981C575.255 524.761 575.346 524.493 575.346 524.217C575.346 523.941 575.255 523.672 575.088 523.453C574.92 523.233 574.686 523.075 574.42 523.002ZM584.41 515.442C584.72 515.442 585.017 515.318 585.237 515.099C585.456 514.88 585.58 514.582 585.58 514.272C585.58 513.961 585.456 513.664 585.237 513.444C585.017 513.225 584.72 513.102 584.41 513.102C584.099 513.102 583.802 513.225 583.582 513.444C583.363 513.664 583.24 513.961 583.24 514.272C583.24 514.582 583.363 514.88 583.582 515.099C583.802 515.318 584.099 515.442 584.41 515.442ZM462.1 815.322C462.182 814.906 462.182 814.478 462.1 814.062C461.11 805.062 446.62 812.802 453.1 820.182C453.712 820.793 454.498 821.201 455.35 821.352C456.213 821.542 457.109 821.524 457.964 821.3C458.819 821.076 459.608 820.652 460.267 820.064C460.926 819.475 461.436 818.738 461.755 817.913C462.073 817.089 462.192 816.201 462.1 815.322ZM472.54 764.742C473.2 765.397 474.026 765.861 474.93 766.083C475.834 766.305 476.781 766.277 477.67 766.002C478.374 765.757 479.02 765.367 479.564 764.857C480.108 764.347 480.538 763.727 480.827 763.04C481.115 762.352 481.256 761.611 481.239 760.865C481.222 760.12 481.049 759.386 480.73 758.712C479.11 751.962 466.24 758.172 472.54 764.742ZM493.33 795.882C493.881 794.401 493.881 792.772 493.33 791.292C481.9 781.302 482.8 808.932 493.33 795.882ZM408.1 836.472C413.77 840.522 419.17 834.942 414.22 829.092C412.33 826.842 401.26 831.342 408.1 836.472ZM459.4 857.802C447.7 849.342 445.99 874.722 458.23 866.802C459.443 865.679 460.244 864.182 460.505 862.551C460.766 860.919 460.472 859.246 459.67 857.802H459.4ZM494.32 719.562C491.62 725.142 500.53 730.002 502.6 721.362C502.6 719.382 502.6 716.772 498.01 716.412C497.154 716.518 496.348 716.874 495.692 717.434C495.037 717.993 494.559 718.733 494.32 719.562ZM487.48 685.002C488.348 685.48 489.346 685.671 490.329 685.546C491.313 685.42 492.231 684.986 492.952 684.305C493.673 683.625 494.159 682.733 494.34 681.758C494.521 680.783 494.388 679.776 493.96 678.882C491.26 673.662 481.45 679.602 487.48 685.002ZM504.49 646.932C504.49 652.062 514.03 651.342 513.49 645.492C513.484 644.902 513.333 644.322 513.05 643.804C512.768 643.287 512.362 642.846 511.87 642.522C509.8 640.002 502.15 641.892 504.49 646.932ZM543.55 594.462C548.68 591.402 545.35 583.932 540.4 586.632C533.92 587.262 537.7 597.882 543.55 594.462ZM508.54 554.592C508.579 554.293 508.579 553.99 508.54 553.692C508.679 552.984 508.638 552.252 508.422 551.564C508.206 550.875 507.82 550.252 507.301 549.751C506.782 549.25 506.146 548.887 505.45 548.695C504.755 548.503 504.022 548.488 503.32 548.652C502.585 548.844 501.916 549.23 501.382 549.769C500.849 550.309 500.47 550.982 500.286 551.718C500.102 552.454 500.119 553.227 500.336 553.954C500.553 554.681 500.962 555.337 501.52 555.852C501.864 556.589 502.443 557.191 503.165 557.565C503.887 557.939 504.713 558.064 505.514 557.92C506.315 557.777 507.045 557.372 507.593 556.77C508.14 556.168 508.473 555.402 508.54 554.592ZM451.48 514.002C447.25 508.512 440.41 515.352 444.64 519.852C445.022 520.202 445.445 520.504 445.9 520.752C448.87 523.632 455.35 518.502 451.48 514.002ZM457.06 459.192C454.9 461.262 455.17 466.932 458.95 467.382C459.824 467.783 460.806 467.886 461.745 467.677C462.685 467.468 463.53 466.957 464.152 466.223C464.774 465.489 465.138 464.572 465.19 463.611C465.242 462.65 464.979 461.699 464.44 460.902C464.112 460.259 463.647 459.695 463.078 459.251C462.51 458.807 461.851 458.492 461.148 458.329C460.444 458.166 459.714 458.159 459.008 458.308C458.302 458.457 457.637 458.759 457.06 459.192ZM472.09 402.672C471.118 402.194 470.01 402.068 468.956 402.315C467.902 402.562 466.966 403.167 466.308 404.027C465.65 404.886 465.31 405.948 465.347 407.03C465.383 408.112 465.794 409.148 466.51 409.962C466.736 410.872 467.195 411.707 467.842 412.385C468.489 413.064 469.301 413.562 470.2 413.832C470.779 413.907 471.368 413.866 471.932 413.712C472.496 413.558 473.024 413.293 473.485 412.933C473.945 412.573 474.33 412.124 474.615 411.614C474.901 411.104 475.083 410.543 475.15 409.962C475.345 409.075 475.324 408.154 475.089 407.277C474.854 406.4 474.412 405.592 473.8 404.922C473.534 403.983 472.923 403.179 472.09 402.672ZM439.51 434.442C441.67 427.512 429.97 426.792 429.97 433.272C429.99 434.452 430.456 435.581 431.274 436.432C432.092 437.283 433.201 437.794 434.38 437.862C435.495 437.956 436.61 437.669 437.542 437.048C438.474 436.427 439.167 435.508 439.51 434.442ZM435.1 784.722C438.88 791.292 447.16 779.502 437.44 778.872C435.91 779.862 433.48 780.672 435.1 784.722ZM654.79 816.492C655.708 816.34 656.565 815.933 657.262 815.317C657.959 814.7 658.469 813.9 658.732 813.007C658.995 812.114 659.001 811.166 658.749 810.27C658.498 809.374 657.999 808.567 657.31 807.942C652.81 803.082 645.25 816.042 654.79 816.492ZM665.14 749.082C666.22 746.922 666.22 744.132 663.52 743.232C650.56 741.252 657.31 761.052 665.14 749.082ZM643.9 695.892C643.014 695.667 642.086 695.667 641.2 695.892C627.34 705.522 657.13 708.582 643.9 695.892ZM676.48 681.132C679.72 678.252 679.9 671.592 673.6 672.132C667.3 672.672 668.92 685.632 676.48 681.132ZM693.31 714.702C693.226 714.112 693.013 713.548 692.686 713.051C692.359 712.553 691.927 712.133 691.42 711.822C690.757 711.353 689.966 711.099 689.154 711.094C688.342 711.09 687.548 711.335 686.88 711.796C686.212 712.258 685.702 712.914 685.42 713.675C685.137 714.436 685.095 715.266 685.3 716.052C685.479 717.114 686.072 718.061 686.95 718.686C687.828 719.31 688.917 719.561 689.98 719.382C691.042 719.203 691.989 718.609 692.614 717.731C693.238 716.854 693.489 715.764 693.31 714.702ZM719.05 742.242C719.924 742.027 720.705 741.533 721.273 740.835C721.842 740.136 722.167 739.272 722.2 738.372C722.474 737.429 722.363 736.416 721.89 735.555C721.418 734.694 720.622 734.056 719.68 733.782C718.737 733.507 717.723 733.618 716.863 734.091C716.002 734.564 715.364 735.359 715.09 736.302C713.74 737.652 714.46 743.412 719.05 742.242ZM711.49 784.542C710.575 784.963 709.841 785.697 709.42 786.612C704.02 804.972 728.05 784.812 711.49 784.542ZM776.74 787.962C776.61 786.975 776.129 786.068 775.385 785.407C774.642 784.746 773.685 784.375 772.69 784.362C758.11 788.412 774.22 802.002 776.74 787.962ZM789.789 735.762C793.659 737.562 796.81 729.912 792.22 727.842C789.7 725.862 784.3 730.272 787.63 734.682C788.183 735.307 788.957 735.693 789.789 735.762ZM823.99 750.162C828.04 750.162 830.65 741.162 823.99 741.162C822.1 741.162 820.03 742.242 819.58 745.662C819.526 746.258 819.603 746.859 819.804 747.424C820.005 747.988 820.327 748.501 820.746 748.929C821.165 749.357 821.672 749.689 822.232 749.902C822.792 750.114 823.392 750.203 823.99 750.162ZM696.19 874.542C697.383 874.422 698.48 873.834 699.24 872.905C699.999 871.977 700.359 870.785 700.24 869.592C700.12 868.398 699.532 867.301 698.603 866.541C697.675 865.782 696.483 865.422 695.289 865.542C694.096 865.661 692.999 866.25 692.239 867.178C691.48 868.106 691.12 869.298 691.24 870.492C691.359 871.685 691.947 872.782 692.876 873.542C693.804 874.301 694.996 874.661 696.19 874.542ZM656.32 925.662C660.19 928.812 667.75 922.782 663.43 917.382C660.46 912.252 651.01 919.542 656.32 925.662ZM709.149 938.982C710.098 938.358 710.803 937.428 711.147 936.347C711.491 935.265 711.453 934.098 711.039 933.042C711.039 930.432 704.92 926.382 703.21 932.232C702.664 933.087 702.412 934.096 702.49 935.108C702.568 936.119 702.972 937.078 703.642 937.839C704.313 938.601 705.212 939.124 706.205 939.33C707.198 939.536 708.232 939.414 709.149 938.982ZM650.11 861.222C649.03 860.592 648.58 860.502 645.88 861.222C643.18 861.942 642.91 865.092 645.88 867.792C648.85 870.492 656.68 865.002 650.11 861.222ZM972.94 597.432C973.162 595.989 973.031 594.513 972.556 593.132C972.082 591.751 971.278 590.506 970.215 589.505C969.152 588.504 967.861 587.777 966.454 587.386C965.047 586.995 963.567 586.952 962.14 587.262C960.331 587.952 958.851 589.303 958 591.042C957.282 591.733 956.73 592.578 956.387 593.513C956.044 594.449 955.918 595.45 956.02 596.442C953.5 606.432 970.51 609.762 972.94 597.432ZM995.529 626.952C1006.15 634.422 1019.38 618.852 1012.36 609.582C1010.7 607.234 1008.28 605.525 1005.52 604.739C1002.75 603.953 999.797 604.137 997.149 605.262C989.679 609.222 986.529 622.452 995.529 626.952ZM1004.08 677.712C1009.84 690.582 1031.08 670.692 1016.95 661.782C1007.68 655.842 999.58 670.242 1004.08 677.712ZM977.62 725.232C979.203 725.409 980.807 725.25 982.325 724.766C983.844 724.281 985.243 723.482 986.432 722.421C987.621 721.359 988.573 720.059 989.225 718.605C989.878 717.151 990.217 715.575 990.22 713.982C994.36 703.002 982.3 696.522 975.01 698.322C963.94 701.022 966.64 726.582 977.62 725.232ZM929.289 737.922C931.137 739.352 933.407 740.128 935.744 740.126C938.08 740.124 940.35 739.346 942.195 737.913C944.04 736.48 945.357 734.474 945.937 732.211C946.517 729.948 946.328 727.556 945.399 725.412C940.269 713.442 923.8 718.392 925.87 732.522C926.554 734.573 927.728 736.426 929.289 737.922ZM901.48 696.162C900.364 696.044 899.236 696.159 898.167 696.499C897.098 696.84 896.111 697.399 895.27 698.142C890.59 702.282 890.5 713.712 897.61 714.972C906.61 718.662 914.89 704.442 907.24 698.502C905.563 697.22 903.574 696.412 901.48 696.162Z" fill="#2C6822"/>
<path d="M878.531 1299.43C830.921 1294.03 780.431 1289.89 733.271 1301.23L657.041 1131.58C675.041 1105.12 686.201 1063.72 693.851 1027.54C732.641 1032.94 771.701 1017.73 758.021 981.371C749.831 960.041 736.421 938.171 730.031 916.211C723.385 892.025 720.77 866.908 722.291 841.871C726.783 843.646 731.515 844.738 736.331 845.111C753.611 846.281 766.931 836.111 779.441 825.761C808.707 801.082 832.808 770.863 850.361 736.841C848.443 732.125 846.187 727.553 843.611 723.161C851.687 720.306 859.253 716.174 866.021 710.921C869.441 756.821 909.671 785.171 939.551 779.771C981.401 772.301 1008.49 744.851 1034.59 711.011C1047.39 695.877 1055.85 677.558 1059.07 658.001C1063.12 625.241 1057.63 579.341 1025.77 561.521C1017.6 557.07 1008.49 554.634 999.193 554.414C989.895 554.195 980.678 556.2 972.311 560.261C952.577 568.6 936.86 584.285 928.481 604.001C912.821 579.161 857.831 596.081 872.681 649.001C862.478 652.87 853.712 659.782 847.571 668.801C843.985 673.899 840.014 678.713 835.691 683.202C832.091 686.442 827.501 688.241 823.721 691.301C823.003 690.731 822.367 690.065 821.831 689.322H820.661C793.954 705.2 769.057 723.94 746.411 745.211C725.081 701.111 689.351 642.251 649.481 616.781C648.941 608.411 648.221 598.781 648.311 598.781C659.921 592.121 675.311 590.861 680.261 562.781C683.741 540.205 682.454 517.15 676.481 495.102C701.231 486.102 706.091 451.361 699.431 458.561C696.264 462.5 691.796 465.181 686.831 466.121C693.763 457.489 697.321 446.631 696.841 435.57C696.36 424.509 691.875 414 684.221 406.001C683.903 405.613 683.468 405.337 682.981 405.214C682.494 405.091 681.98 405.129 681.516 405.32C681.052 405.512 680.662 405.848 680.403 406.279C680.145 406.709 680.032 407.212 680.081 407.711C681.11 413.496 679.96 419.458 676.852 424.444C673.744 429.431 668.898 433.089 663.251 434.711V424.722C663.267 424.352 663.156 423.989 662.937 423.691C662.718 423.393 662.404 423.179 662.047 423.085C661.689 422.99 661.311 423.02 660.973 423.171C660.635 423.321 660.359 423.583 660.191 423.912C657.772 428.021 654.562 431.608 650.746 434.467C646.93 437.325 642.584 439.397 637.961 440.561C639.206 436.268 640.228 431.912 641.021 427.511C641.064 427.038 640.978 426.562 640.771 426.134C640.564 425.706 640.244 425.343 639.846 425.084C639.448 424.825 638.986 424.679 638.511 424.663C638.036 424.646 637.566 424.76 637.151 424.991L616.631 437.412C616.631 437.412 619.871 429.132 610.061 429.852C610.061 429.852 578.111 459.552 566.681 458.922C558.491 458.922 554.981 473.862 568.031 485.922C544.001 503.922 551.021 553.151 574.241 569.621C568.391 578.621 567.491 579.611 568.751 579.881C571.973 580.95 575.346 581.497 578.741 581.501C574.936 582.538 571.299 584.114 567.941 586.181C544.879 557.796 519.89 531.033 493.151 506.081C491.081 442.271 488.831 383.501 483.251 381.431C481.722 380.903 480.158 380.482 478.571 380.172C483.881 362.892 478.571 338.322 460.571 330.672C526.091 257.771 534.641 255.611 531.401 242.111C543.191 249.581 558.401 241.121 565.691 231.221C596.921 219.701 591.701 147.521 582.071 157.331C578.471 161.021 581.081 174.341 561.101 174.881C549.851 174.881 537.791 171.011 531.851 176.231C509.351 177.401 500.891 214.211 511.871 229.061C508.243 229.774 504.808 231.246 501.791 233.381L438.161 316.001C435.821 316.001 425.561 309.701 422.861 319.961C422.292 322.115 422.292 324.378 422.861 326.531C420.19 325.539 417.251 325.539 414.581 326.531C412.651 327.093 410.964 328.284 409.79 329.915C408.615 331.546 408.021 333.523 408.101 335.531C408.042 337.016 408.417 338.486 409.181 339.761C407.87 339.891 406.642 340.46 405.695 341.374C404.747 342.289 404.136 343.497 403.961 344.801C403.652 346.507 403.717 348.26 404.152 349.938C404.587 351.617 405.382 353.18 406.481 354.521L331.151 436.511C331.151 436.511 320.621 448.122 326.291 453.792C326.291 453.792 331.781 459.281 344.291 446.771L428.981 368.201C428.997 370.868 429.723 373.482 431.083 375.775C432.443 378.068 434.389 379.958 436.721 381.251C434.46 381.328 432.206 381.538 429.971 381.881C429.431 381.881 429.971 382.781 429.971 382.781C481.541 381.251 482.981 383.771 483.251 383.681C483.971 403.661 491.531 484.932 490.721 505.542C490.684 505.75 490.684 505.963 490.721 506.172C490.721 508.152 532.931 548.201 565.691 587.171C555.175 595.235 546.468 605.414 540.131 617.051C515.021 658.631 505.931 785.531 505.481 827.381C498.281 892.811 451.481 907.571 436.721 889.751C425.836 877.53 413.779 866.407 400.721 856.541C391.181 845.741 375.971 830.711 364.091 834.941C384.251 816.041 419.801 807.941 441.491 764.381C476.141 694.631 474.251 601.212 470.651 641.442C440.578 606.294 420.819 563.51 413.559 517.826C406.3 472.142 411.824 425.34 429.521 382.602C429.521 381.702 428.261 380.982 427.901 381.972C362.561 530.292 469.481 643.692 469.931 644.592C467.424 668.138 462.846 691.419 456.251 714.161C431.681 802.001 408.911 796.511 367.331 828.191C361.367 831.94 356.615 837.333 353.645 843.72C350.675 850.107 349.614 857.216 350.591 864.191C232.601 909.191 256.361 1011.07 256.361 1011.07L287.951 1207.99C194.711 1244.71 102.641 1284.22 12.1006 1327.24C11.4706 1327.24 11.6506 1328.86 12.5506 1328.77C79.7806 1323.19 144.131 1340.56 203.351 1370.26C186.814 1374.53 170.651 1380.12 155.021 1387C139.451 1393.12 124.061 1399.87 108.941 1407.07C76.7078 1422.63 45.7431 1440.68 16.3306 1461.07C15.0706 1461.07 15.6106 1463.14 16.3306 1462.87C67.6306 1453.87 105.521 1447.39 154.751 1452.43C106.421 1478.44 8.41059 1532.8 7.60059 1532.8L13.4506 1555.21H395.591C395.591 1555.21 402.791 1527.67 423.041 1558.81C423.041 1558.81 582.071 1581.94 759.191 1710.64V1684.63C759.191 1684.63 633.191 1573.84 411.791 1533.88C477.041 1530.64 545.621 1520.56 609.791 1539.91C708.341 1569.79 778.631 1620.91 781.601 1618.57C893.921 1514.98 854.951 1556.11 963.581 1459.27C978.246 1465.82 993.27 1471.52 1008.58 1476.37C995.981 1484.65 893.741 1553.23 762.431 1683.37L763.871 1710.82C763.871 1710.82 903.101 1558.63 1009.84 1493.02C1009.84 1493.02 1009.84 1475.02 1009.3 1475.02C994.631 1469.35 979.691 1463.05 964.301 1458.64C995.621 1430.92 1007.5 1428.31 1002.64 1426.24C982.643 1416.14 961.95 1407.48 940.721 1400.32C969.161 1377.19 1029.73 1330.84 1028.29 1330.3C969.071 1309.06 964.481 1309.24 878.531 1299.43ZM529.781 178.301C528.593 179.993 527.857 181.96 527.641 184.016C527.426 186.071 527.738 188.148 528.549 190.049C529.36 191.95 530.643 193.613 532.276 194.881C533.908 196.148 535.838 196.978 537.881 197.291C554.711 197.291 535.631 207.191 534.911 209.261C534.663 210.347 534.797 211.485 535.288 212.485C535.78 213.484 536.6 214.284 537.611 214.751C542.741 217.181 547.151 212.141 551.471 211.151C554.171 210.521 557.591 211.781 557.861 214.481C558.131 217.181 554.261 219.521 552.911 222.491C552.368 223.897 552.331 225.447 552.808 226.876C553.284 228.305 554.243 229.523 555.521 230.321C557.085 231.296 558.898 231.796 560.741 231.761C557.377 236.302 552.56 239.555 547.092 240.979C541.623 242.404 535.832 241.914 530.681 239.591C529.738 236.268 527.712 233.355 524.923 231.316C522.134 229.278 518.743 228.231 515.291 228.341C507.821 221.051 502.511 187.571 529.781 178.301ZM434.291 316.901C435.296 317.225 436.317 317.495 437.351 317.711C441.851 320.141 441.491 327.522 441.221 330.042C438.251 330.042 437.261 333.461 436.901 335.801C432.671 334.631 430.961 335.081 427.901 330.581C427.278 329.798 426.735 328.953 426.281 328.061C422.231 321.041 425.471 313.841 434.291 316.901ZM415.481 328.061C418.6 327.518 421.81 328.16 424.481 329.861C425.518 332.154 427.205 334.092 429.333 335.435C431.46 336.779 433.935 337.469 436.451 337.422C436.332 338.832 436.548 340.25 437.081 341.561C436.264 343.167 434.936 344.454 433.306 345.22C431.676 345.986 429.838 346.187 428.081 345.792C425.136 346.084 422.164 345.719 419.378 344.723C416.592 343.727 414.062 342.124 411.971 340.031C411.193 339.08 410.66 337.954 410.416 336.75C410.172 335.546 410.225 334.3 410.571 333.121C410.917 331.943 411.544 330.866 412.4 329.984C413.255 329.102 414.313 328.443 415.481 328.061ZM408.281 354.071C406.827 352.385 405.972 350.265 405.851 348.042C405.851 345.072 406.931 340.661 410.801 341.831C412.91 343.888 415.422 345.486 418.179 346.524C420.936 347.562 423.879 348.017 426.821 347.861C426.231 349.657 425.232 351.291 423.9 352.633C422.569 353.974 420.943 354.987 419.152 355.59C417.36 356.193 415.453 356.369 413.582 356.106C411.71 355.842 409.926 355.146 408.371 354.071H408.281ZM476.591 379.451L439.331 380.441C436.678 379.405 434.366 377.654 432.65 375.382C430.934 373.11 429.882 370.406 429.611 367.571L445.631 352.811C449.141 361.811 461.471 361.812 457.691 360.102C453.911 358.392 448.151 357.401 446.891 350.561C446.763 349.001 447.247 347.452 448.241 346.241C445.196 345.185 442.317 343.7 439.691 341.831C438.486 340.171 437.972 338.109 438.257 336.078C438.543 334.047 439.605 332.205 441.221 330.941H458.501C477.671 341.831 478.481 359.291 476.681 379.451H476.591ZM734.621 1340.47C736.666 1347.35 739.161 1354.08 742.091 1360.63C733.311 1369.03 723.02 1375.69 711.761 1380.25C700.061 1366.57 702.761 1369.54 700.061 1366.3C712.52 1359.03 724.114 1350.36 734.621 1340.47ZM739.751 1402.48C732.641 1408.96 703.751 1433.44 694.751 1438.48C691.151 1435.87 694.751 1427.23 695.921 1424.35C703.121 1411.93 708.341 1412.92 708.971 1382.14C719.861 1381.33 740.831 1365.31 744.971 1360C750.449 1369.83 754.796 1380.25 757.931 1391.05C756.401 1392.04 754.421 1393.3 753.161 1394.29C751.716 1390.51 749.58 1387.03 746.861 1384.03C745.511 1382.41 743.621 1379.89 741.191 1381.06C738.761 1382.23 737.951 1386.82 737.681 1388.98C737.315 1393.56 737.928 1398.16 739.481 1402.48H739.751ZM753.161 1005.94C744.161 1026.37 714.281 1025.92 694.841 1023.04C700.691 994.601 703.391 974.621 703.841 969.041C724.631 971.381 755.501 983.261 753.161 1005.94ZM879.161 607.151C890.321 593.561 916.241 587.981 926.411 605.531C926.483 605.695 926.595 605.839 926.736 605.949C926.877 606.059 927.044 606.132 927.221 606.161C927.289 606.294 927.392 606.405 927.519 606.482C927.646 606.559 927.792 606.6 927.941 606.6C928.089 606.6 928.235 606.559 928.362 606.482C928.489 606.405 928.592 606.294 928.661 606.161C961.061 540.371 1057.54 530.741 1056.28 646.391C1056.28 682.391 1032.52 710.741 1009.21 735.761C919.211 832.061 843.071 738.282 875.291 670.602C875.422 670.253 875.422 669.87 875.291 669.521C880.228 666.767 885.626 664.937 891.221 664.121C887.171 683.651 921.911 684.731 924.701 661.871C925.146 657.329 924.022 652.771 921.517 648.956C919.012 645.141 915.276 642.298 910.931 640.901C906.992 639.952 902.839 640.603 899.38 642.712C895.921 644.821 893.44 648.216 892.481 652.151C886.975 648.407 880.24 646.924 873.671 648.011C872.141 633.881 869.891 619.031 879.611 607.151H879.161ZM893.111 653.322C894.174 649.73 896.62 646.708 899.911 644.919C903.202 643.13 907.068 642.721 910.661 643.781C913.851 644.883 916.641 646.909 918.677 649.602C920.712 652.294 921.9 655.532 922.091 658.901C922.721 676.901 891.041 684.372 892.031 664.212H892.931C893.651 664.212 894.641 663.041 894.731 662.771C895.439 661.244 895.705 659.55 895.498 657.879C895.291 656.209 894.62 654.63 893.561 653.322H893.111ZM846.131 671.952C851.92 663.335 859.781 656.311 868.991 651.521C875.921 648.461 895.991 648.732 892.481 661.962C885.918 662.251 879.615 664.614 874.481 668.712C871.421 668.712 864.851 691.482 865.481 708.582C858.191 713.532 850.181 717.582 842.891 722.442C815.801 671.232 818.591 706.962 846.581 671.952H846.131ZM675.131 495.461C686.561 582.941 671.441 584.201 646.871 596.261C646.674 596.363 646.511 596.519 646.399 596.71C646.288 596.901 646.233 597.12 646.241 597.342C646.144 607.443 646.655 617.541 647.771 627.582C638.433 638.433 628.327 648.6 617.531 658.001C599.247 644.697 585.891 625.706 579.551 604.001C580.787 596.385 581.029 588.64 580.271 580.962C585.851 580.962 591.701 580.151 596.561 579.881C597.551 579.881 598.001 577.811 597.911 577.631C594.566 568.211 590.253 559.162 585.041 550.631C585.041 551.531 583.241 553.781 582.791 554.681C582.708 554.634 582.615 554.609 582.521 554.609C582.426 554.609 582.333 554.634 582.251 554.681C566.141 554.681 563.351 531.282 577.841 530.472C586.841 529.932 586.841 539.921 593.411 542.621C593.495 542.662 593.587 542.682 593.681 542.682C593.774 542.682 593.866 542.662 593.951 542.621C598.361 543.701 602.051 539.741 602.951 535.061C604.121 527.231 596.201 517.062 604.481 502.482C634.811 508.332 656.501 500.141 675.221 495.461H675.131ZM568.931 485.831C578.796 493.444 590.233 498.763 602.411 501.401C595.301 511.571 601.601 524.802 601.601 530.922C601.481 533.189 600.626 535.356 599.165 537.094C597.703 538.832 595.714 540.046 593.501 540.551C589.451 536.681 588.281 530.921 582.521 528.761C580.027 527.88 577.315 527.825 574.787 528.602C572.259 529.38 570.048 530.951 568.481 533.082C567.178 535.423 566.525 538.071 566.589 540.749C566.653 543.428 567.432 546.041 568.846 548.318C570.26 550.594 572.256 552.451 574.629 553.697C577.002 554.942 579.664 555.531 582.341 555.401C580.181 559.451 577.751 563.232 575.321 567.102C564.494 556.685 557.863 542.659 556.685 527.681C555.508 512.702 559.865 497.812 568.931 485.831ZM570.371 577.991C575.912 570.703 580.934 563.034 585.401 555.041C586.661 558.281 593.321 573.041 595.481 576.911C590.891 577.001 574.061 577.451 570.371 577.991ZM578.471 583.391C578.471 585.551 576.311 603.011 578.471 604.271C580.755 615.732 585.307 626.62 591.861 636.295C598.414 645.971 606.836 654.238 616.631 660.611C629.251 651.647 640.343 640.707 649.481 628.212C649.64 628.12 649.773 627.989 649.867 627.832C649.962 627.674 650.014 627.495 650.021 627.311C650.021 625.691 650.021 622.361 649.481 618.311C692.141 656.561 707.621 673.301 744.341 745.841C744.971 747.011 746.411 746.381 746.591 745.301C771.611 727.301 794.111 705.791 820.841 689.861C829.841 705.521 838.841 720.461 847.841 736.211C826.601 775.001 782.051 831.521 750.821 841.241C729.041 847.991 704.381 829.811 697.361 823.241L696.821 823.781C703.503 831.414 711.722 837.548 720.941 841.781C713.471 876.071 725.801 914.681 738.041 946.181C744.161 961.841 757.931 982.181 755.051 1000.18C752.711 975.161 721.121 958.151 605.561 951.761L613.481 892.001C619.061 863.111 607.541 825.941 610.331 758.351C614.381 662.501 641.291 653.681 660.821 630.551C660.892 630.486 660.949 630.408 660.99 630.321C661.03 630.234 661.053 630.139 661.057 630.043C661.062 629.947 661.047 629.851 661.014 629.761C660.981 629.67 660.931 629.587 660.866 629.516C660.801 629.446 660.722 629.388 660.635 629.347C660.548 629.307 660.453 629.284 660.357 629.28C660.261 629.275 660.165 629.29 660.075 629.323C659.985 629.356 659.902 629.407 659.831 629.472C630.581 655.842 614.831 670.691 608.801 742.151C603.491 803.351 614.381 851.051 611.951 883.721L507.371 828.011C514.481 720.461 516.821 610.841 578.471 583.391ZM357.611 841.691C370.211 830.621 382.181 841.691 392.801 852.131C379.286 854.874 365.99 858.604 353.021 863.291C352.082 859.58 352.008 855.702 352.804 851.958C353.599 848.213 355.244 844.701 357.611 841.691ZM382.721 1028.53C423.131 1024.75 496.571 996.761 496.571 996.761C496.571 996.761 499.271 918.731 502.511 913.061C505.751 907.391 505.211 913.061 505.211 913.061C489.011 1150.48 551.831 1218.25 551.831 1218.25L640.481 1324C634.128 1326.09 627.907 1328.55 621.851 1331.38C598.975 1289.97 569.555 1252.53 534.731 1220.5C518.207 1205.16 500.106 1191.62 480.731 1180.09C461.381 1168.84 439.241 1158.22 416.381 1159.93C415.751 1158.85 418.091 1158.22 372.371 1175.32L382.721 1028.53ZM18.7606 1460.53C47.6081 1441.72 77.6745 1424.86 108.761 1410.04C125.411 1402.12 142.421 1394.83 159.611 1388.26C175.001 1382.32 191.381 1378.18 206.411 1371.61C280.565 1410.47 346.826 1462.82 401.801 1525.96C351.941 1489.96 287.861 1476.73 229.001 1462.96C151.511 1444.69 108.131 1442.44 18.7606 1460.89V1460.53ZM14.4406 1532.53C15.3406 1532.08 158.981 1453.78 159.701 1452.88C208.931 1458.55 344.471 1487.08 405.311 1532.71C397.481 1532.71 244.481 1524.88 14.4406 1532.98V1532.53ZM16.5106 1326.34C105.791 1284.34 196.361 1245.34 288.221 1209.34L293.261 1240.48L305.501 1240.93C306.9 1248.98 309.164 1256.86 312.251 1264.42C307.751 1264.42 304.871 1273.42 296.861 1282.42C291.347 1287.41 285.313 1291.78 278.861 1295.47C270.941 1301.23 273.101 1307.44 281.741 1310.23C296.771 1315 316.661 1306.09 330.431 1301.23C332.021 1296.26 333.977 1291.42 336.281 1286.74C341.411 1281.88 342.311 1297 342.131 1299.25C346.139 1299.97 350.225 1300.15 354.281 1299.79C356.434 1287.37 355.912 1274.64 352.751 1262.44H350.861C351.91 1256.01 352.451 1249.51 352.481 1243L367.241 1243.54L371.921 1177.84C415.481 1162 415.481 1162.81 416.291 1162C462.551 1162.99 506.291 1198 537.971 1228.24C569.868 1259.22 597.309 1294.48 619.511 1333C583.511 1351 554.261 1381.15 524.831 1407.43C481.707 1444.37 442.637 1485.79 408.281 1531C316.481 1423 157.721 1309.42 16.5106 1326.79V1326.34ZM330.251 1299.34C318.19 1303.36 305.818 1306.37 293.261 1308.34C289.301 1308.34 269.771 1308.34 279.581 1296.46C293.569 1290.21 304.799 1279.08 311.171 1265.14C324.827 1267.17 338.753 1266.44 352.121 1262.98C352.121 1271.08 353.111 1265.05 352.841 1297.99C350.193 1297.96 347.547 1298.11 344.921 1298.44C345.911 1280.17 333.941 1278.01 330.251 1300.06V1299.34ZM349.331 1262.17C337.647 1263.83 325.849 1264.56 314.051 1264.33C314.051 1264.33 310.091 1248.58 307.841 1240.93L351.041 1242.46C350.051 1249.57 349.241 1262.71 349.331 1262.89V1262.17ZM999.491 1427.14C960.881 1451.89 930.191 1487.44 894.191 1515.52C853.676 1545.91 815.719 1579.56 780.701 1616.14C726.141 1583.64 668.237 1557.12 607.991 1537.03C557.771 1521.64 460.931 1523.89 412.601 1531.9C476.591 1504.9 521.051 1501.12 584.771 1507.87C648.491 1514.62 692.141 1524.7 748.841 1561.87C752.621 1564.39 814.541 1501.84 939.191 1400.5C959.711 1409.32 979.511 1418.86 999.491 1427.86V1427.14ZM1024.24 1330.84C930.191 1403.74 838.391 1479.07 751.271 1560.07C751.224 1559.88 751.136 1559.7 751.011 1559.54C750.887 1559.39 750.73 1559.26 750.551 1559.17C700.241 1525.69 644.261 1511.65 584.771 1505.17C521.771 1498.51 473.621 1502.11 410.171 1530.64C444.307 1488.36 481.615 1448.73 521.771 1412.11C585.761 1353.61 606.011 1337.32 642.191 1325.44L681.431 1372.42C687.205 1371.3 692.764 1369.26 697.901 1366.39L710.321 1379.98C709.871 1379.98 707.621 1380.52 707.621 1381.33C705.281 1411.12 706.001 1403.38 694.121 1424.26C692.355 1426.78 691.515 1429.83 691.745 1432.9C691.975 1435.97 693.259 1438.86 695.381 1441.09C695.921 1441.09 742.271 1402.93 742.091 1402.66C741.911 1402.39 736.601 1383.58 742.811 1383.22C747.401 1383.22 753.161 1395.46 753.611 1395.28C755.707 1394.43 757.652 1393.24 759.371 1391.77C756.857 1379.6 752.096 1368 745.331 1357.57C745.331 1357.57 743.621 1358.29 743.351 1358.56C741.101 1351.72 738.761 1344.88 736.151 1338.13C742.181 1332.55 745.961 1328.59 745.961 1328.59L733.901 1301.59C781.836 1294.57 830.519 1294.3 878.531 1300.78C960.791 1311.31 968.261 1311.22 1024.24 1331.56V1330.84Z" fill="#2C6822"/>
<path d="M1381.18 918.461V917.921H1380.55C1380.34 917.89 1380.12 917.937 1379.94 918.053C1379.76 918.168 1379.62 918.345 1379.56 918.551L1272.73 978.311C1267.87 1003.15 1273.63 1001.62 1265.17 1094.77C1257.43 1104.31 1252.57 1117.99 1225.03 1128.25C1209.6 1132.82 1194.55 1138.6 1180.03 1145.53C1161.13 1156.24 1156.18 1176.04 1175.17 1190.53C1174.77 1190.81 1174.4 1191.15 1174.09 1191.52L1171.39 1193.05C1171.03 1193.31 1170.75 1193.66 1170.59 1194.08C1170.43 1194.49 1170.4 1194.94 1170.49 1195.38C1170.59 1195.81 1170.81 1196.2 1171.13 1196.51C1171.45 1196.82 1171.85 1197.02 1172.29 1197.1C1173.46 1198.18 1174.45 1197.64 1175.53 1197.1C1175.57 1197.73 1175.57 1198.36 1175.53 1198.99C1175.53 1199.52 1175.74 1200.02 1176.11 1200.39C1176.48 1200.76 1176.98 1200.97 1177.51 1200.97C1178.03 1200.97 1178.54 1200.76 1178.91 1200.39C1179.28 1200.02 1179.49 1199.52 1179.49 1198.99V1195.21L1181.11 1194.31C1194.52 1202.05 1213.78 1205.74 1217.83 1223.2C1220.8 1236.16 1210.72 1252 1197.94 1261.09C1197.94 1261.09 1196.41 1248.4 1196.32 1248.22C1195.69 1246.42 1192.72 1246.42 1192.81 1248.67V1252.9L1189.48 1247.32C1189.16 1246.95 1188.73 1246.71 1188.25 1246.63C1187.77 1246.55 1187.28 1246.64 1186.86 1246.89C1186.44 1247.13 1186.12 1247.52 1185.96 1247.98C1185.8 1248.44 1185.8 1248.94 1185.97 1249.39C1188.31 1254.43 1190.56 1259.47 1192.99 1264.51C1160.41 1282.51 1148.71 1242.46 1128.28 1225.54C1130.89 1211.68 1131.52 1211.95 1130.98 1210.69C1131.06 1210.41 1131.08 1210.12 1131.04 1209.84C1131.01 1209.55 1130.91 1209.28 1130.77 1209.02C1130.63 1208.77 1130.44 1208.55 1130.21 1208.38C1129.99 1208.2 1129.73 1208.07 1129.45 1207.99C1129.17 1207.91 1128.88 1207.89 1128.59 1207.93C1128.31 1207.96 1128.03 1208.06 1127.78 1208.2C1127.53 1208.34 1127.31 1208.53 1127.13 1208.76C1126.96 1208.98 1126.83 1209.24 1126.75 1209.52C1126.12 1211.05 1125.67 1212.67 1125.13 1214.29C1124.59 1215.91 1124.5 1215.19 1124.05 1216.9L1123.06 1213.93C1122.94 1213.49 1122.65 1213.11 1122.25 1212.89C1121.86 1212.66 1121.39 1212.6 1120.94 1212.72C1120.5 1212.84 1120.13 1213.13 1119.9 1213.52C1119.67 1213.92 1119.61 1214.39 1119.73 1214.83C1119.28 1215.73 1119.73 1217.17 1120.54 1220.14C1116.2 1217.39 1111.55 1215.19 1106.68 1213.57C1094.02 1209.86 1080.44 1210.82 1068.43 1216.27C1067.71 1212.85 1067.17 1209.34 1066.72 1205.92C1066.27 1202.5 1063.48 1204.3 1063.03 1205.92C1062.46 1206.17 1062.01 1206.62 1061.77 1207.18C1061.14 1206.28 1060.42 1204.84 1058.71 1205.56C1058.43 1205.47 1058.12 1205.45 1057.84 1205.53C1057.55 1205.6 1057.29 1205.76 1057.09 1205.98C1056.89 1206.2 1056.75 1206.47 1056.71 1206.76C1056.66 1207.06 1056.7 1207.36 1056.82 1207.63C1059.07 1211.23 1061.23 1214.83 1063.39 1218.43C1048.26 1226.4 1034.74 1237.12 1023.52 1250.02C1023.41 1250.21 1023.37 1250.43 1023.4 1250.64C1023.43 1250.86 1023.53 1251.06 1023.68 1251.21C1023.83 1251.36 1024.03 1251.46 1024.25 1251.49C1024.46 1251.52 1024.68 1251.48 1024.87 1251.37C1037.01 1240.57 1050.11 1230.9 1064.02 1222.48C1064.74 1226.8 1065.64 1231.48 1066.54 1235.35C1066.54 1237.78 1071.13 1237.24 1070.77 1234.81C1070.81 1234.27 1070.81 1233.73 1070.77 1233.19C1071.11 1232.87 1071.36 1232.47 1071.49 1232.02L1072.3 1233.28C1072.53 1233.72 1072.9 1234.06 1073.36 1234.27C1073.81 1234.47 1074.31 1234.52 1074.79 1234.41C1075.27 1234.29 1075.71 1234.02 1076.02 1233.64C1076.33 1233.26 1076.51 1232.79 1076.53 1232.29V1231.84C1076.53 1231.6 1076.48 1231.35 1076.37 1231.13C1076.26 1230.92 1076.1 1230.73 1075.9 1230.58C1074.1 1226.95 1072.09 1223.44 1069.87 1220.05C1078.22 1216.16 1087.48 1214.61 1096.64 1215.58C1105.8 1216.55 1114.53 1219.99 1121.89 1225.54V1226.26C1121.89 1228.24 1121.17 1230.22 1120.72 1232.2C1120.27 1234.18 1120 1235.62 1119.73 1237.33C1119.46 1239.04 1123.69 1241.56 1124.14 1238.59V1237.33C1124.51 1237.05 1124.79 1236.68 1124.95 1236.25L1127.65 1243.27C1128.64 1245.79 1132.69 1244.8 1131.79 1242.1C1130.89 1239.4 1129.36 1234.72 1128.1 1231.12C1145.38 1248.22 1159.78 1286.2 1193.44 1269.01C1194.07 1275.04 1194.16 1276.84 1194.97 1284.31C1195.07 1284.82 1195.35 1285.28 1195.75 1285.61C1196.15 1285.93 1196.65 1286.11 1197.17 1286.11C1197.69 1286.11 1198.2 1285.93 1198.6 1285.61C1199 1285.28 1199.28 1284.82 1199.38 1284.31C1199.38 1282.42 1199.38 1280.53 1198.93 1278.64C1199.02 1278.26 1199.02 1277.86 1198.93 1277.47C1199.16 1277.56 1199.42 1277.56 1199.65 1277.47C1201.18 1278.46 1203.79 1277.47 1203.07 1275.04C1201.82 1271.79 1200.41 1268.61 1198.84 1265.5C1214.77 1254.52 1227.19 1233.64 1218.1 1216.54C1211.35 1203.94 1196.5 1199.89 1183.36 1193.23C1187.59 1190.35 1194.25 1189.18 1190.29 1186.03C1189.12 1181.44 1185.25 1186.03 1179.04 1189.18V1185.4C1179.04 1185.11 1178.92 1184.84 1178.72 1184.64C1178.52 1184.44 1178.25 1184.32 1177.96 1184.32C1177.67 1184.32 1177.4 1184.44 1177.19 1184.64C1176.99 1184.84 1176.88 1185.11 1176.88 1185.4C1176.88 1186.66 1176.43 1187.83 1176.16 1189.09C1159.51 1176.85 1163.65 1158.94 1180.75 1148.95C1197.85 1138.96 1218.64 1135.27 1236.91 1127.71C1243.66 1124.67 1249.75 1120.32 1254.82 1114.91C1259.88 1109.5 1263.83 1103.15 1266.43 1096.21L1391.44 1034.29C1391.68 1034.35 1391.93 1034.32 1392.15 1034.2C1392.36 1034.09 1392.53 1033.89 1392.61 1033.66C1390.81 1025.47 1382.08 919.001 1381.18 918.461ZM1330.42 1007.38L1267.42 1094.32C1269.22 1077.94 1276.42 998.741 1273.9 979.031L1330.6 1007.38L1379.92 920.891C1381.97 958.325 1385.91 995.633 1391.71 1032.67L1330.42 1007.38ZM71.6787 1105.21L61.8687 1088.92L58.2687 1106.65L42.0687 1110.25L54.8487 1119.34L51.0687 1136.62L66.1887 1124.2L83.9187 1132.3L75.7287 1116.01L86.5287 1102.69L71.6787 1105.21ZM1010.65 1089.82L996.789 1067.77L991.659 1091.8L968.439 1096.66L986.619 1108.99L981.309 1132.48L1002.82 1115.56L1028.11 1126.63L1016.41 1104.58L1031.71 1086.4L1010.65 1089.82ZM376.689 141.941C386.409 143.561 398.829 141.401 404.319 151.391L401.619 153.281C401.071 155.781 401.422 158.394 402.609 160.661C404.266 164.201 406.617 167.372 409.524 169.985C412.431 172.597 415.833 174.599 419.529 175.871L421.599 175.331C426.729 178.661 433.749 181.001 438.609 175.781C443.469 170.561 440.229 162.281 440.319 162.101C450.669 147.791 429.159 134.111 429.159 134.111L426.639 135.911C417.099 117.911 442.839 100.631 420.339 69.5813C394.149 33.5813 324.399 50.2313 344.379 111.341C346.399 118.935 350.49 125.818 356.195 131.222C361.901 136.626 368.996 140.337 376.689 141.941ZM411.969 146.171C400.135 134.369 387.374 123.535 373.809 113.771C377.589 114.671 379.839 116.651 382.809 113.321V112.061C386.319 103.061 388.479 112.511 393.069 105.671V103.781C395.589 100.181 395.229 103.151 397.659 102.881C398.817 102.953 399.978 102.8 401.079 102.431C403.869 101.171 403.329 96.6713 408.189 97.2113C410.381 112.157 414.276 126.802 419.799 140.861L411.969 146.171ZM437.979 164.981C438.704 166.685 438.936 168.559 438.65 170.388C438.363 172.218 437.57 173.93 436.359 175.331C432.579 178.841 427.359 176.861 423.759 174.521C429.145 172.43 434.001 169.172 437.979 164.981ZM425.919 88.7513C429.879 106.751 415.479 124.751 424.569 137.351L421.599 139.421C413.679 113.231 404.769 72.8213 407.559 94.9613C399.099 94.4213 401.169 97.8413 399.639 99.1013C398.109 100.361 393.969 99.1013 391.179 100.451C390.369 100.451 391.179 102.341 390.369 102.701C384.879 108.461 386.589 104.231 381.999 105.761C380.289 106.391 380.199 106.841 379.389 108.281C378.579 109.721 381.549 111.431 378.579 113.051C378.579 113.051 373.629 112.331 371.739 112.241C353.739 98.2013 391.899 132.761 409.449 148.241L405.849 150.761C395.319 129.701 348.789 156.611 343.839 94.1513C339.879 42.3113 415.479 39.8813 425.919 88.7513ZM1069.69 1511.65C1069.48 1513.75 1070.02 1515.85 1071.2 1517.6C1072.38 1519.34 1074.14 1520.61 1076.17 1521.19C1086.43 1522 1087.33 1514.62 1087.33 1514.62L1091.92 1497.52L1073.92 1495.63L1069.69 1511.65ZM374.529 1.90128C374.529 0.55128 371.919 0.731281 372.099 1.90128C373.119 11.6821 374.742 21.3905 376.959 30.9713C378.039 34.1213 384.069 34.8413 374.529 1.90128ZM423.579 52.8413C427.564 45.7738 430.59 38.2074 432.579 30.3413C432.549 30.1059 432.457 29.8827 432.313 29.6941C432.169 29.5054 431.978 29.3581 431.759 29.2668C431.54 29.1756 431.301 29.1436 431.065 29.1743C430.83 29.2049 430.607 29.297 430.419 29.4413C426.028 36.295 422.662 43.7539 420.429 51.5813C419.889 53.2913 422.769 55.0013 423.579 52.8413ZM323.769 56.2613C323.966 56.3373 324.18 56.3624 324.39 56.3342C324.599 56.306 324.799 56.2254 324.969 56.0998C325.139 55.9743 325.275 55.8078 325.364 55.6158C325.454 55.4238 325.493 55.2125 325.479 55.0013C319.458 45.7252 312.49 37.099 304.689 29.2613C303.699 28.4513 301.989 29.2613 302.799 30.7013C306.039 34.7513 319.719 52.2113 323.769 56.2613ZM284.439 119.351C314.409 115.211 311.439 110.351 309.369 110.351C300.369 111.431 292.269 115.031 283.719 116.741C281.919 117.011 282.729 119.621 284.439 119.351ZM345.279 154.901C346.089 153.821 344.739 152.201 343.479 152.651C336.335 157.115 329.535 162.11 323.139 167.591C321.699 168.761 323.139 171.101 325.029 170.111C332.138 165.538 338.906 160.455 345.279 154.901ZM376.689 163.451C375.159 171.011 375.429 179.021 374.349 186.671C374.349 188.561 376.959 189.461 377.319 187.481C379.338 179.642 380.067 171.525 379.479 163.451C379.479 163.081 379.332 162.726 379.07 162.465C378.809 162.203 378.454 162.056 378.084 162.056C377.714 162.056 377.359 162.203 377.097 162.465C376.836 162.726 376.689 163.081 376.689 163.451ZM342.939 268.931C345.105 269.113 347.286 268.83 349.335 268.102C351.384 267.374 353.254 266.218 354.821 264.711C356.388 263.204 357.616 261.38 358.422 259.36C359.229 257.341 359.596 255.173 359.499 253.001C357.879 230.771 326.199 233.651 325.389 251.831C325.615 256.371 327.55 260.657 330.805 263.829C334.06 267 338.395 268.823 342.939 268.931ZM355.719 250.931C356.169 252.792 356.17 254.733 355.721 256.595C355.272 258.456 354.387 260.183 353.138 261.635C351.889 263.086 350.313 264.219 348.539 264.94C346.766 265.661 344.846 265.949 342.939 265.781C339.313 265.858 335.787 264.598 333.031 262.241C330.276 259.884 328.484 256.595 327.999 253.001C328.193 249.619 329.605 246.421 331.972 243.998C334.339 241.574 337.503 240.088 340.88 239.814C344.256 239.54 347.618 240.496 350.346 242.506C353.073 244.516 354.981 247.445 355.719 250.751V250.931ZM759.999 452.801C760.719 454.961 854.589 459.011 875.289 458.561C872.596 461.081 870.676 464.314 869.752 467.883C868.827 471.453 868.937 475.212 870.069 478.721C872.769 485.471 881.229 486.821 887.529 487.721C921.279 492.221 954.849 498.971 992.199 491.411C1043.14 481.151 1016.14 430.571 985.449 453.881C986.595 447.274 985.741 440.475 982.997 434.357C980.254 428.238 975.745 423.078 970.049 419.539C964.354 416 957.731 414.242 951.03 414.492C944.329 414.742 937.855 416.988 932.439 420.941C932.439 397.991 898.419 378.821 884.019 399.431C887.709 366.671 858.639 346.061 827.229 352.181C793.479 358.571 787.449 397.001 802.479 422.921C797.915 419.227 792.271 417.122 786.402 416.924C780.534 416.726 774.761 418.446 769.959 421.824C765.156 425.202 761.585 430.054 759.788 435.644C757.991 441.234 758.065 447.257 759.999 452.801ZM934.239 423.101C958.539 408.611 984.729 423.101 982.389 456.491C982.389 456.491 984.639 457.391 984.819 457.211C1013.53 434.171 1036.93 478.361 995.169 487.901C961.239 495.641 920.469 490.601 885.639 484.481C858.639 479.711 878.979 443.891 899.409 457.931C900.939 459.011 901.479 446.681 911.649 446.591C916.599 446.591 923.349 448.301 924.969 453.521C924.969 453.521 926.769 451.181 926.589 450.641C924.249 440.561 924.159 429.131 934.239 423.101ZM880.239 402.671C880.239 404.471 883.029 403.211 883.119 402.671C899.409 381.521 928.119 400.061 929.019 422.561C925.439 425.207 922.866 428.991 921.721 433.292C920.577 437.594 920.928 442.156 922.719 446.231C913.719 440.201 899.229 442.811 898.239 455.231C896.68 453.873 894.867 452.839 892.905 452.189C890.943 451.539 888.871 451.286 886.81 451.446C884.749 451.605 882.741 452.173 880.902 453.116C879.063 454.06 877.43 455.36 876.099 456.941C840.099 451.901 766.299 452.351 762.429 450.641C758.559 448.931 762.429 434.441 765.129 430.121C767.357 427.18 770.206 424.766 773.473 423.051C776.741 421.336 780.346 420.363 784.032 420.199C787.718 420.036 791.396 420.687 794.802 422.107C798.208 423.526 801.259 425.679 803.739 428.411C805.179 429.671 805.629 426.071 805.539 425.981C763.779 330.761 893.289 335.981 880.689 402.671H880.239ZM978.519 245.981C976.864 234.27 972.005 223.244 964.479 214.121C930.099 182.801 858.279 217.361 894.189 286.121C898.186 292.414 902.606 298.428 907.419 304.121C915.519 315.821 919.209 342.011 920.919 356.141C920.919 356.499 921.061 356.843 921.314 357.096C921.567 357.349 921.911 357.491 922.269 357.491H948.099C952.329 357.491 946.749 325.271 952.059 310.601C959.799 288.101 984.549 272.711 978.519 245.981ZM923.619 206.111C929.554 204.863 935.684 204.863 941.619 206.111C947.803 222.802 950.529 240.576 949.632 258.353C948.734 276.129 944.232 293.538 936.399 309.521H929.109C921.282 293.541 916.761 276.145 915.818 258.376C914.874 240.607 917.528 222.83 923.619 206.111ZM894.009 278.831C883.299 251.831 883.119 228.341 907.329 212.861C892.569 232.031 896.079 282.791 925.329 309.611C921.189 309.611 917.139 308.351 912.999 307.901C906.053 298.628 899.709 288.918 894.009 278.831ZM945.939 355.151C940.179 355.781 934.599 355.151 928.839 355.151C923.079 355.151 924.249 358.301 921.279 339.581C930.013 340.975 938.914 340.975 947.649 339.581C947.79 344.825 947.215 350.063 945.939 355.151ZM947.649 337.151C938.649 338.321 929.649 337.151 920.649 338.051C918.673 328.21 916.088 318.502 912.909 308.981C924.816 313.03 937.698 313.219 949.719 309.521C947.492 318.582 946.792 327.95 947.649 337.241V337.151ZM950.979 307.001C947.954 307.312 944.949 307.793 941.979 308.441C970.959 280.001 972.309 230.321 958.269 212.501C972.579 222.491 981.759 253.991 973.119 271.271C966.819 283.691 956.739 294.041 951.339 307.271L950.979 307.001ZM1024.42 373.511C1026.31 378.011 1028.02 349.481 1047.46 347.051C1048.18 347.051 1048.81 346.331 1048.18 345.701C1044.22 341.831 1033.15 341.651 1031.8 317.711C1031.8 316.721 1029.91 316.361 1029.91 317.711C1029.37 344.711 996.249 345.521 1002.91 347.501C1019.29 352.001 1022.08 368.021 1024.42 373.511ZM1030.81 325.001C1031.06 329.161 1032.32 333.198 1034.46 336.77C1036.61 340.342 1039.59 343.344 1043.14 345.521C1038.72 347.951 1034.85 351.256 1031.76 355.232C1028.66 359.209 1026.41 363.775 1025.14 368.651C1023.65 363.957 1021.24 359.61 1018.04 355.869C1014.84 352.127 1010.92 349.067 1006.51 346.871C1012.11 345.656 1017.3 342.999 1021.56 339.164C1025.83 335.328 1029.01 330.446 1030.81 325.001ZM1142.95 473.411C1142.23 473.411 1142.41 474.851 1142.95 475.031C1148.01 476.148 1152.54 478.944 1155.81 482.964C1159.08 486.984 1160.89 491.991 1160.95 497.171C1160.95 497.801 1162.3 497.981 1162.48 497.171C1162.66 496.361 1162.48 479.171 1173.64 472.511C1174.36 472.511 1174.72 470.531 1173.64 470.621C1161.4 472.421 1154.29 448.031 1154.2 447.671C1154.11 447.311 1152.4 447.131 1152.67 447.671C1153.69 452.442 1153.32 457.408 1151.6 461.973C1149.88 466.538 1146.87 470.509 1142.95 473.411ZM1155.91 455.411C1158.79 462.611 1163.47 471.611 1170.49 472.781C1166.15 476.963 1163.25 482.415 1162.21 488.351C1159.26 481.855 1153.9 476.757 1147.27 474.131C1152.39 469.083 1155.47 462.32 1155.91 455.141V455.411ZM543.279 336.161V336.971C547.751 337.791 551.868 339.952 555.083 343.167C558.298 346.382 560.459 350.499 561.279 354.971C561.338 355.151 561.452 355.308 561.606 355.419C561.759 355.53 561.944 355.59 562.134 355.59C562.323 355.59 562.508 355.53 562.661 355.419C562.815 355.308 562.93 355.151 562.989 354.971C565.509 346.781 567.219 337.961 580.989 335.981C581.529 335.981 581.709 334.811 580.989 334.811C564.699 333.191 561.549 313.031 560.919 311.591C560.289 310.151 559.389 311.591 559.479 311.591C561.909 326.891 548.139 333.371 543.279 336.161ZM561.999 319.601C563.098 322.974 564.903 326.075 567.293 328.697C569.682 331.319 572.602 333.404 575.859 334.811C572.702 336.187 569.892 338.25 567.634 340.851C565.377 343.451 563.728 346.523 562.809 349.841C561.278 346.399 558.941 343.376 555.996 341.026C553.052 338.677 549.585 337.07 545.889 336.341C549.75 335.104 553.244 332.926 556.056 330.004C558.868 327.082 560.91 323.508 561.999 319.601ZM1382.8 663.491C1373.8 632.531 1372.54 603.731 1368.94 607.331C1357.6 618.581 1332.94 640.901 1332.94 640.991C1332.94 641.081 1365.79 656.831 1380.46 665.111C1380.82 665.381 1383.07 664.301 1382.8 663.491ZM1336.45 640.451C1348.46 631.158 1359.53 620.697 1369.48 609.221C1370.52 627.056 1373.94 644.671 1379.65 661.601C1364.89 653.771 1350.85 649.001 1336.45 640.451ZM1297.48 659.711C1295.02 668.582 1293.12 677.6 1291.81 686.711C1291.81 688.601 1294.33 689.411 1294.69 687.521C1297.05 678.362 1298.43 668.981 1298.83 659.531C1298.76 659.397 1298.65 659.287 1298.52 659.217C1298.39 659.147 1298.24 659.12 1298.09 659.139C1297.94 659.159 1297.8 659.225 1297.69 659.328C1297.58 659.43 1297.51 659.564 1297.48 659.711ZM1284.7 726.131C1287.61 717.329 1289.78 708.297 1291.18 699.131C1291.18 697.961 1289.56 697.871 1289.2 699.131C1286.31 707.757 1284.14 716.607 1282.72 725.591C1282.73 725.819 1282.81 726.036 1282.96 726.214C1283.1 726.391 1283.29 726.518 1283.51 726.578C1283.73 726.638 1283.97 726.627 1284.18 726.547C1284.39 726.467 1284.57 726.321 1284.7 726.131ZM1317.19 703.721C1317.53 703.827 1317.89 703.805 1318.21 703.661C1318.53 703.516 1318.79 703.258 1318.93 702.936C1319.08 702.615 1319.1 702.251 1318.99 701.914C1318.89 701.578 1318.66 701.292 1318.36 701.111C1311.24 697.494 1303.58 695.062 1295.68 693.911C1289.11 694.001 1312.69 703.001 1317.19 703.721ZM1283.26 688.871C1275.43 686.711 1267.69 683.921 1259.86 681.851C1258.15 681.851 1252.03 683.561 1282.36 692.201C1282.8 692.321 1283.27 692.26 1283.67 692.032C1284.06 691.804 1284.35 691.428 1284.47 690.986C1284.59 690.545 1284.53 690.074 1284.3 689.677C1284.08 689.28 1283.7 688.991 1283.26 688.871ZM1055.29 805.061C1042.42 811.631 1031.62 833.141 1036.48 847.091C1036.48 847.091 1037.2 847.721 1037.38 847.811C1058.98 849.971 1190.38 849.791 1233.76 848.891C1234.07 848.883 1234.37 848.791 1234.63 848.625C1234.89 848.458 1235.11 848.224 1235.24 847.947C1235.38 847.669 1235.44 847.359 1235.42 847.05C1235.4 846.741 1235.29 846.444 1235.11 846.191C1236.5 840.155 1235.93 833.83 1233.47 828.145C1231.01 822.46 1226.79 817.713 1221.43 814.601C1215.43 812.316 1209 811.342 1202.59 811.745C1196.18 812.149 1189.93 813.921 1184.26 816.941C1190.47 805.871 1184.26 793.631 1176.7 784.091C1167.7 772.391 1157.8 761.141 1142.23 760.061C1128.46 758.213 1114.49 761.41 1102.9 769.061C1091.47 778.601 1092.46 792.641 1094.44 805.871C1085.8 794.081 1066.9 799.121 1055.29 805.061ZM1103.26 773.561C1107.96 769.273 1113.52 766.03 1119.56 764.047C1125.61 762.064 1132.01 761.386 1138.34 762.058C1144.67 762.73 1150.78 764.736 1156.27 767.945C1161.77 771.153 1166.52 775.491 1170.22 780.671C1178.5 790.931 1189.84 805.331 1179.85 818.291C1178.68 819.821 1182.64 819.551 1182.73 819.461C1221.88 807.131 1231.87 820.541 1232.5 845.561C1189.48 847.991 1047.46 844.751 1037.65 846.191C1034.86 803.441 1082.65 792.191 1095.88 811.451C1096.42 812.261 1097.59 811.451 1096.78 809.921C1095.52 797.861 1094.08 782.921 1103.26 773.561ZM1196.95 925.661C1197.94 925.031 1196.95 923.501 1196.5 923.771C1181.2 929.171 1172.29 907.391 1171.66 906.491C1171.03 905.591 1170.04 906.491 1170.31 907.031C1174.54 917.651 1173.28 930.161 1161.31 934.661C1161.15 934.717 1161.01 934.82 1160.91 934.957C1160.82 935.094 1160.76 935.258 1160.76 935.426C1160.76 935.594 1160.82 935.759 1160.91 935.896C1161.01 936.033 1161.15 936.136 1161.31 936.191C1166.36 935.438 1171.52 936.485 1175.88 939.15C1180.24 941.816 1183.53 945.929 1185.16 950.771C1185.16 951.851 1187.32 951.671 1187.23 950.771C1187.14 949.871 1184.62 932.861 1196.95 925.661ZM1184.8 944.561C1182.78 941.609 1180.11 939.169 1176.98 937.435C1173.86 935.7 1170.37 934.72 1166.8 934.571C1169.64 932.326 1171.83 929.371 1173.16 926.004C1174.49 922.637 1174.9 918.979 1174.36 915.401C1176.18 918.629 1178.79 921.349 1181.93 923.313C1185.07 925.278 1188.66 926.426 1192.36 926.651C1189.98 928.993 1188.09 931.781 1186.8 934.854C1185.5 937.927 1184.82 941.226 1184.8 944.561ZM844.419 1275.94C865.029 1213.48 914.889 1158.94 968.979 1122.94C970.689 1121.77 968.979 1119.07 967.359 1120.15C855.219 1194.76 837.669 1297 844.419 1275.94ZM810.219 1212.31C840.909 1165.42 870.519 1146.61 919.569 1120.42C921.459 1119.43 919.569 1116.64 917.949 1117.63C876.279 1138.42 830.289 1168.57 809.319 1211.77C809.283 1211.89 809.287 1212.01 809.33 1212.12C809.373 1212.24 809.453 1212.33 809.556 1212.4C809.66 1212.46 809.782 1212.48 809.902 1212.47C810.022 1212.45 810.134 1212.4 810.219 1212.31ZM949.899 1082.8C954.129 1082.26 950.529 1076.05 912.279 1084.78C830.649 1102.78 811.749 1140.4 816.159 1135.54C855.489 1092.52 913.449 1087.48 949.899 1082.8ZM124.599 914.501C111.819 921.251 101.829 911.081 98.4087 899.561C98.4087 898.661 96.5187 898.751 96.6087 899.561C98.9487 927.821 142.149 927.101 135.849 890.561C131.408 872.167 123.86 854.665 113.529 838.811C90.7587 800.021 70.5987 785.891 74.6487 790.931C98.0487 820.001 156.459 897.761 124.599 914.501ZM229.719 964.541C235.119 961.211 232.149 952.751 232.689 947.621C232.689 946.361 230.799 946.181 230.529 947.621C230.185 950.249 229.974 952.892 229.899 955.541C228.099 964.541 219.459 962.111 213.429 959.231C204.106 953.77 196.234 946.146 190.479 937.001C178.869 920.891 168.789 903.521 158.709 886.511C95.7087 781.481 91.2087 788.051 92.4687 789.581C123.429 829.811 147.369 874.001 174.099 917.021C184.089 933.221 194.979 953.561 213.249 962.021C217.479 964.001 225.219 967.241 229.719 964.541ZM132.069 817.751C131.439 816.941 130.089 817.751 130.629 818.831C173.919 880.751 166.989 859.781 132.069 817.751ZM34.8687 755.561C15.6087 784.631 49.2687 798.131 49.2687 798.131C46.8006 794.523 45.8251 790.099 46.5465 785.787C47.268 781.475 49.6304 777.61 53.1387 775.001C55.726 776.775 58.4324 778.369 61.2387 779.771C69.6718 776.849 77.2057 771.795 83.1087 765.101C82.1424 761.771 80.8459 758.545 79.2387 755.471C83.0006 752.964 87.5952 752.031 92.037 752.873C96.4788 753.714 100.414 756.262 102.999 759.971C102.999 759.971 102.999 722.531 66.9987 731.441C26.8587 660.971 -35.8713 637.391 28.4787 744.941C30.1887 748.541 32.4387 752.051 34.8687 755.561ZM26.4087 684.371C36.5787 695.711 57.4587 707.051 81.0387 763.841C75.0445 769.37 68.4657 774.228 61.4187 778.331C21.0987 735.311 23.6187 726.941 6.42871 698.681L26.4087 684.371ZM238.089 526.421C220.089 529.121 191.829 548.741 198.669 570.071C192.977 565.472 185.954 562.83 178.642 562.538C171.33 562.246 164.119 564.32 158.079 568.451C150.724 574.094 145.38 581.953 142.836 590.867C140.291 599.781 140.681 609.276 143.949 617.951H305.139C320.529 617.951 325.659 547.931 272.019 569.171C274.115 564.028 274.805 558.419 274.02 552.92C273.234 547.422 271 542.231 267.547 537.881C264.094 533.53 259.546 530.176 254.369 528.162C249.193 526.149 243.574 525.548 238.089 526.421ZM270.309 572.681C298.749 554.681 326.289 585.011 305.499 616.151C305.499 616.151 154.659 613.991 146.469 615.611C132.429 570.611 180.939 548.831 201.099 575.831C201.729 576.731 201.099 572.861 200.379 571.871C192.009 541.991 242.859 513.191 264.549 537.221C278.949 553.061 266.079 575.471 270.309 572.681ZM92.4687 329.501C91.9328 330.418 91.6065 331.443 91.5132 332.501C91.4198 333.559 91.5617 334.625 91.9287 335.621C88.5987 339.311 94.3587 349.931 102.999 344.081C118.075 350.371 133.996 354.405 150.249 356.051C145.659 370.631 135.129 408.881 148.269 416.621C161.409 424.361 179.679 380.621 185.079 367.571C188.897 366.255 192.437 364.241 195.519 361.631C218.469 363.521 268.599 365.141 253.209 342.731C246.999 333.731 211.449 326.981 200.649 325.271C206.679 306.821 222.879 251.561 195.969 262.271C184.539 266.681 173.649 293.501 166.089 312.311C161.203 313.443 156.74 315.94 153.219 319.511C138.549 318.071 98.4987 316.001 92.4687 329.501ZM201.369 327.341C211.809 328.961 247.539 336.341 251.319 343.811C261.579 363.431 219.189 359.831 198.309 358.661C202.451 354.652 205.033 349.301 205.593 343.564C206.154 337.826 204.657 332.076 201.369 327.341ZM196.509 264.341C218.469 257.951 204.249 303.221 197.859 323.651C194.178 319.57 189.613 316.386 184.511 314.342C179.41 312.299 173.909 311.45 168.429 311.861C172.479 301.871 186.519 267.041 196.509 264.161V264.341ZM182.019 368.741C156.909 437.501 131.169 425.621 152.319 357.311C155.375 362.159 159.926 365.879 165.285 367.909C170.644 369.939 176.518 370.168 182.019 368.561V368.741ZM151.869 321.671C148.696 326.273 146.828 331.648 146.464 337.226C146.099 342.803 147.252 348.376 149.799 353.351C149.799 353.351 112.359 347.501 104.799 342.371C107.769 339.581 105.699 331.841 94.8087 333.371C93.0087 328.421 100.209 325.631 103.359 324.371C119.174 320.181 135.669 319.202 151.869 321.491V321.671ZM84.9087 215.561C89.2059 217.401 92.9779 220.281 95.8845 223.942C98.7912 227.602 100.741 231.929 101.559 236.531C103.989 241.661 101.559 216.281 115.869 215.201C116.499 215.201 116.859 214.121 115.869 213.761C109.569 210.521 100.839 209.531 95.2587 184.691C95.2587 183.251 92.3787 183.971 93.0987 185.321C98.6787 196.121 84.7287 214.301 84.6387 214.301C84.4716 214.337 84.3256 214.438 84.2328 214.581C84.14 214.725 84.1079 214.899 84.1437 215.066C84.1795 215.233 84.2802 215.379 84.4237 215.472C84.5672 215.565 84.7416 215.597 84.9087 215.561ZM96.0687 195.221C97.0581 199.33 98.9314 203.174 101.558 206.485C104.185 209.795 107.502 212.494 111.279 214.391C108.531 215.88 106.192 218.022 104.465 220.627C102.739 223.232 101.679 226.221 101.379 229.331C100.354 225.693 98.3803 222.392 95.6602 219.767C92.9402 217.142 89.5714 215.286 85.8987 214.391C91.484 209.432 95.0947 202.626 96.0687 195.221ZM83.6487 118.001C99.7879 114.326 115.663 109.575 131.169 103.781C140.799 108.641 103.089 67.7813 88.7787 57.8813C88.1487 57.4313 87.4287 58.4213 87.8787 58.9613C85.0884 78.0555 83.286 97.2811 82.4787 116.561C82.4787 116.561 83.2887 118.001 83.6487 118.001ZM88.8687 59.8613C119.289 90.3713 117.489 91.8113 129.009 101.891C114.249 106.661 99.6687 112.871 84.6387 116.471C85.7187 97.4813 87.0687 78.5813 88.8687 59.7713V59.8613ZM80.5887 591.401C80.7439 591.592 80.9685 591.714 81.2133 591.739C81.458 591.764 81.7028 591.691 81.8937 591.536C82.0847 591.381 82.2062 591.157 82.2315 590.912C82.2568 590.667 82.1839 590.422 82.0287 590.231C81.2474 585.762 81.6046 581.169 83.0675 576.875C84.5304 572.58 87.0517 568.724 90.3987 565.661C91.4787 564.671 90.3987 562.601 89.4087 563.321C74.6487 571.511 64.2987 554.951 64.1187 554.321C63.9387 553.691 62.2287 554.321 62.5887 554.951C69.5187 572.951 58.9887 579.701 54.3987 581.951C53.9487 581.951 54.3987 583.031 54.3987 582.851C59.0408 580.731 64.3103 580.433 69.1617 582.017C74.0131 583.601 78.0919 586.95 80.5887 591.401ZM66.0987 560.441C68.6116 563.261 71.8227 565.369 75.4091 566.554C78.9954 567.739 82.8305 567.959 86.5287 567.191C81.7704 572.471 79.1686 579.344 79.2387 586.451C77.0871 584.093 74.4083 582.276 71.4208 581.15C68.4334 580.024 65.222 579.62 62.0487 579.971C64.3365 577.333 65.91 574.153 66.619 570.734C67.328 567.315 67.1489 563.771 66.0987 560.441ZM192.369 763.841C191.919 763.841 192.369 764.741 192.369 764.741C196.854 762.471 202.043 762.018 206.854 763.476C211.665 764.935 215.729 768.192 218.199 772.571C218.829 773.471 220.089 772.571 219.639 771.401C218.977 766.935 219.391 762.376 220.847 758.102C222.302 753.828 224.758 749.964 228.009 746.831C228.999 745.841 228.009 743.951 227.019 744.491C224.774 745.597 222.329 746.241 219.831 746.386C217.332 746.53 214.83 746.173 212.473 745.333C210.115 744.494 207.949 743.191 206.104 741.501C204.258 739.81 202.771 737.767 201.729 735.491C201.729 734.681 199.839 735.491 200.199 736.121C207.759 754.121 197.049 761.141 192.369 763.841ZM204.069 741.611C206.582 744.431 209.793 746.539 213.379 747.724C216.965 748.909 220.801 749.129 224.499 748.361C220.202 753.889 217.747 760.625 217.479 767.621C215.365 765.214 212.691 763.364 209.693 762.234C206.695 761.104 203.466 760.729 200.289 761.141C202.531 758.478 204.055 755.285 204.716 751.867C205.378 748.449 205.155 744.919 204.069 741.611ZM30.8187 868.601C30.9739 868.792 31.1985 868.914 31.4432 868.939C31.688 868.964 31.9327 868.891 32.1237 868.736C32.3147 868.581 32.4362 868.356 32.4615 868.112C32.4868 867.867 32.4139 867.622 32.2587 867.431C30.3687 857.801 32.2587 853.841 40.8087 843.041C41.7087 841.961 40.8087 840.161 39.8187 840.701C37.5716 841.834 35.1182 842.5 32.6066 842.659C30.0951 842.817 27.5774 842.466 25.2056 841.624C22.8338 840.783 20.6569 839.47 18.8064 837.765C16.9559 836.059 15.4701 833.997 14.4387 831.701C14.4387 830.891 12.6387 831.701 12.9987 832.331C14.3659 834.647 15.2402 837.22 15.5666 839.89C15.893 842.559 15.6647 845.267 14.8958 847.844C14.1269 850.421 12.8341 852.812 11.0983 854.866C9.3626 856.92 7.22133 858.593 4.80871 859.781V860.681C9.33966 858.454 14.5482 858.032 19.3783 859.503C24.2083 860.974 28.2982 864.226 30.8187 868.601ZM16.4187 838.001C18.9177 840.814 22.1132 842.918 25.6839 844.103C29.2545 845.288 33.0742 845.511 36.7587 844.751C34.3318 847.339 32.4388 850.381 31.1879 853.701C29.9371 857.021 29.3529 860.555 29.4687 864.101C27.3353 861.739 24.6751 859.914 21.7041 858.772C18.7331 857.631 15.5348 857.205 12.3687 857.531C14.6414 854.885 16.2052 851.705 16.9136 848.289C17.6219 844.873 17.4516 841.333 16.4187 838.001ZM97.7787 1118.62C120.481 1125.89 141.247 1138.2 158.529 1154.62C174.207 1170.92 188.903 1188.15 202.539 1206.19C203.439 1207.27 205.059 1206.19 204.339 1204.84C181.659 1165.33 142.599 1129.24 97.9587 1117.9C97.5087 1117.81 97.4187 1118.53 97.7787 1118.62ZM201.729 1139.95C202.719 1140.49 203.889 1139.05 202.989 1138.33C186.64 1122.88 165.409 1113.61 142.959 1112.14C141.969 1112.14 141.969 1113.67 142.959 1113.76C165.819 1115.38 183.189 1128.07 201.729 1139.95ZM205.329 1102.69C189.308 1091.45 170.693 1084.48 151.233 1082.41C131.773 1080.35 112.109 1083.27 94.0887 1090.9C93.4587 1090.9 94.0887 1092.25 94.0887 1092.07C112.188 1085.92 131.415 1083.81 150.417 1085.9C169.419 1087.98 187.732 1094.2 204.069 1104.13C204.26 1104.3 204.509 1104.38 204.762 1104.37C205.016 1104.35 205.252 1104.23 205.419 1104.04C205.586 1103.85 205.67 1103.6 205.653 1103.35C205.636 1103.09 205.52 1102.86 205.329 1102.69ZM1119.28 1326.52C1114.06 1338.94 1102.81 1363.33 1102.72 1363.51C1091.45 1403.29 1082.61 1443.71 1076.26 1484.56C1076.26 1484.56 1094.26 1487.89 1094.26 1487.71C1106.68 1447.57 1113.52 1405.45 1124.68 1365.13C1124.68 1365.13 1120.72 1327.15 1120.81 1326.97C1120.9 1326.79 1119.55 1325.71 1119.28 1326.52ZM1120.09 1328.86C1119.91 1331.5 1119.91 1334.14 1120.09 1336.78H1117.21C1118.47 1333.81 1119.28 1331.29 1120.09 1328.86ZM1077.34 1483.12C1082.56 1461.16 1101.46 1381.96 1104.34 1364.41C1104.34 1364.41 1109.92 1363.78 1112.71 1363.78C1101.64 1403.2 1084.81 1483.93 1084.81 1484.02C1082.36 1483.43 1079.86 1483.13 1077.34 1483.12ZM1093.54 1485.46L1086.43 1484.29C1095.43 1444.24 1114.06 1363.78 1114.06 1363.69C1117.13 1364.06 1120.15 1364.79 1123.06 1365.85C1115.41 1384.03 1098.49 1464.76 1093.54 1485.46ZM1104.25 1362.61C1109.02 1354.96 1113.14 1346.92 1116.58 1338.58C1117.89 1339.02 1119.25 1339.3 1120.63 1339.39C1120.63 1340.74 1122.07 1357.39 1122.79 1363.87C1116.67 1362.78 1110.46 1362.35 1104.25 1362.61ZM1091.92 1488.7C1086.53 1487.61 1081.1 1486.8 1075.63 1486.27C1075 1486.27 1074.64 1487.17 1075.63 1487.53C1080.8 1489.38 1086.18 1490.56 1091.65 1491.04C1092.82 1491.4 1093.45 1488.97 1091.92 1488.7ZM1074.55 1492.21C1078.78 1495.9 1085.26 1494.19 1090.12 1496.26C1090.28 1496.37 1090.47 1496.44 1090.66 1496.47C1090.86 1496.51 1091.06 1496.49 1091.25 1496.44C1091.44 1496.38 1091.61 1496.29 1091.76 1496.16C1091.91 1496.03 1092.03 1495.87 1092.11 1495.69C1092.19 1495.51 1092.23 1495.31 1092.22 1495.12C1092.22 1494.92 1092.17 1494.73 1092.09 1494.55C1092 1494.37 1091.87 1494.22 1091.72 1494.09C1091.57 1493.97 1091.39 1493.88 1091.2 1493.83C1088.5 1492.93 1072.48 1490.05 1074.55 1492.21ZM1226.92 1415.89C1221.91 1414.81 1216.68 1415.57 1212.18 1418.04C1207.69 1420.5 1204.23 1424.5 1202.44 1429.3C1194.97 1456.3 1236.64 1466.92 1242.4 1440.19C1243.53 1434.92 1242.54 1429.41 1239.64 1424.87C1236.74 1420.32 1232.17 1417.1 1226.92 1415.89ZM1205.86 1426.33C1210 1417.33 1223.86 1416.79 1226.47 1417.33C1230.68 1418.66 1234.32 1421.38 1236.78 1425.04C1239.25 1428.7 1240.41 1433.09 1240.06 1437.49C1238.35 1465.66 1193.44 1452.7 1205.86 1426.33ZM1309.45 1475.47C1310.44 1459.36 1306.39 1446.58 1305.67 1451.8C1304.74 1459.84 1305.07 1467.98 1306.66 1475.92C1307.02 1477.45 1309.36 1477 1309.45 1475.47ZM1309.18 1516.6C1309.18 1518.31 1312.15 1517.86 1312.15 1516.15C1312.2 1508.75 1311.51 1501.36 1310.08 1494.1C1307.47 1487.62 1308.1 1509.49 1309.18 1516.6ZM1334.38 1478.62C1298.38 1484.47 1310.89 1486.18 1335.28 1481.86C1337.44 1481.5 1336.45 1478.26 1334.38 1478.62ZM1302.97 1484.2C1295.82 1484.3 1288.69 1484.93 1281.64 1486.09C1281.48 1486.15 1281.34 1486.25 1281.24 1486.39C1281.15 1486.52 1281.09 1486.69 1281.09 1486.86C1281.09 1487.02 1281.15 1487.19 1281.24 1487.33C1281.34 1487.46 1281.48 1487.57 1281.64 1487.62C1288.87 1488.62 1296.23 1488.25 1303.33 1486.54C1303.48 1486.52 1303.63 1486.46 1303.76 1486.38C1303.9 1486.3 1304.01 1486.2 1304.1 1486.07C1304.2 1485.95 1304.26 1485.8 1304.3 1485.65C1304.34 1485.5 1304.34 1485.34 1304.32 1485.19C1304.29 1485.04 1304.24 1484.89 1304.16 1484.76C1304.08 1484.62 1303.97 1484.51 1303.85 1484.42C1303.72 1484.32 1303.58 1484.26 1303.43 1484.22C1303.28 1484.18 1303.12 1484.18 1302.97 1484.2Z" fill="#2C6822"/>
<path d="M47.7394 746.562C47.9246 748.114 48.6727 749.545 49.842 750.583C51.0114 751.622 52.5207 752.195 54.0844 752.195C55.648 752.195 57.1574 751.622 58.3267 750.583C59.496 749.545 60.2441 748.114 60.4294 746.562C60.4294 743.052 47.7394 738.102 47.7394 746.562ZM33.8794 724.962C34.066 726.537 34.8242 727.99 36.0103 729.044C37.1963 730.097 38.7278 730.68 40.3144 730.68C41.901 730.68 43.4324 730.097 44.6185 729.044C45.8045 727.99 46.5627 726.537 46.7494 724.962C46.5627 723.386 45.8045 721.934 44.6185 720.88C43.4324 719.826 41.901 719.244 40.3144 719.244C38.7278 719.244 37.1963 719.826 36.0103 720.88C34.8242 721.934 34.066 723.386 33.8794 724.962ZM17.8594 704.892C17.8594 706.587 18.5326 708.212 19.731 709.41C20.9293 710.609 22.5546 711.282 24.2494 711.282C25.9441 711.282 27.5694 710.609 28.7678 709.41C29.9661 708.212 30.6394 706.587 30.6394 704.892C30.6394 701.382 17.8594 696.432 17.8594 704.892ZM464.079 583.662C465.631 583.662 467.119 583.046 468.216 581.948C469.313 580.851 469.929 579.363 469.929 577.812C469.929 576.26 469.313 574.772 468.216 573.675C467.119 572.578 465.631 571.962 464.079 571.962C460.479 571.962 456.339 583.662 464.079 583.662ZM511.419 605.532C511.52 604.746 511.452 603.947 511.219 603.19C510.987 602.432 510.596 601.732 510.073 601.138C509.549 600.543 508.905 600.066 508.182 599.74C507.46 599.413 506.677 599.245 505.884 599.245C505.092 599.245 504.308 599.413 503.586 599.74C502.864 600.066 502.22 600.543 501.696 601.138C501.172 601.732 500.781 602.432 500.549 603.19C500.317 603.947 500.249 604.746 500.349 605.532C500.349 608.862 511.419 613.002 511.419 605.532Z" fill="#2C6822"/>
</svg>
