<svg width="214" height="30" viewBox="0 0 214 30" fill="none" xmlns="http://www.w3.org/2000/svg">
<path d="M4.1875 0.5C5.03125 0.53125 5.75 0.84375 6.34375 1.4375C6.9375 2 7.25 2.70312 7.28125 3.54688V26.5156C7.09375 28.3906 6.0625 29.4062 4.1875 29.5625C3.3125 29.5625 2.54688 29.2812 1.89062 28.7188C1.26562 28.125 0.953125 27.3906 0.953125 26.5156V3.54688C0.984375 2.67188 1.3125 1.95312 1.9375 1.39062C2.5625 0.796875 3.3125 0.5 4.1875 0.5ZM12.2031 8.75C14.2969 7.34375 17.125 5.92188 20.6875 4.48438L28.375 1.20312C28.7188 1.04687 29.0938 0.953125 29.5 0.921875C30.375 0.859375 31.125 1.125 31.75 1.71875C32.375 2.28125 32.6875 3.01562 32.6875 3.92188C32.6875 4.95312 32.4688 5.71875 32.0312 6.21875C31.625 6.6875 31.0938 7.07812 30.4375 7.39062L23.875 9.875C22.5938 10.375 21.375 10.875 20.2188 11.375C19.0938 11.8438 18.0625 12.3906 17.125 13.0156C16.1875 13.5781 15.6875 14.2188 15.625 14.9375C15.6875 15.625 16.1875 16.2656 17.125 16.8594C18.0625 17.4844 19.0938 18.0469 20.2188 18.5469C21.375 19.0156 22.5938 19.5 23.875 20L31.1875 22.6719C31.8438 22.9844 32.375 23.3906 32.7812 23.8906C33.2188 24.3594 33.4375 25.1094 33.4375 26.1406C33.4375 27.0469 33.125 27.7969 32.5 28.3906C31.875 28.9531 31.125 29.2031 30.25 29.1406C29.8438 29.1094 29.4688 29.0156 29.125 28.8594L20.6875 25.3906C17.125 23.9531 14.2812 22.5312 12.1562 21.125C10.0625 19.6875 9 17.625 8.96875 14.9375C9 12.25 10.0781 10.1875 12.2031 8.75ZM37.1875 25.7656C37.1875 24.8906 37.4844 24.1562 38.0781 23.5625C38.7031 22.9375 39.4531 22.625 40.3281 22.625H49.3281V7.53125H40.3281C39.4531 7.53125 38.7188 7.21875 38.125 6.59375C37.5 6 37.1875 5.26562 37.1875 4.39062C37.1875 3.51563 37.4844 2.78125 38.0781 2.1875C38.7031 1.5625 39.4531 1.25 40.3281 1.25H64.6094C65.4844 1.25 66.2344 1.54688 66.8594 2.14062C67.4531 2.76563 67.75 3.51563 67.75 4.39062C67.75 5.26562 67.4375 6.01562 66.8125 6.64062C66.2188 7.23438 65.4844 7.53125 64.6094 7.53125H55.6562V22.625H64.6094C65.4844 22.625 66.2344 22.9219 66.8594 23.5156C67.4531 24.1406 67.75 24.8906 67.75 25.7656C67.75 26.6406 67.4375 27.3906 66.8125 28.0156C66.2188 28.6094 65.4844 28.9062 64.6094 28.9062H40.3281C39.4531 28.9062 38.7188 28.5938 38.125 27.9688C37.5 27.375 37.1875 26.6406 37.1875 25.7656ZM83.125 21.6406C83.125 20.7656 83.4219 20.0312 84.0156 19.4375C84.6406 18.8125 85.3906 18.5 86.2656 18.5H93.4375L92.2188 15.0312C91.7188 13.75 91.2188 12.5469 90.7188 11.4219C90.25 10.2656 89.7031 9.21875 89.0781 8.28125C88.5156 7.34375 87.875 6.84375 87.1562 6.78125C86.4062 6.84375 85.7344 7.34375 85.1406 8.28125C84.5469 9.21875 84 10.2656 83.5 11.4219C83.0312 12.5469 82.5469 13.75 82.0469 15.0312L77.5938 27.2188C77.2812 27.875 76.875 28.4219 76.375 28.8594C75.9062 29.2656 75.1875 29.4688 74.2188 29.4688C73.3125 29.4688 72.5625 29.1562 71.9688 28.5312C71.4062 27.9062 71.1562 27.1562 71.2188 26.2812C71.25 25.875 71.3438 25.5 71.5 25.1562L76.6562 11.8438C78.0938 8.34375 79.5312 5.51562 80.9688 3.35938C82.375 1.23437 84.4375 0.15625 87.1562 0.125C89.8438 0.15625 91.8906 1.23437 93.2969 3.35938C94.7344 5.45312 96.1719 8.28125 97.6094 11.8438L102.766 25.1562C102.922 25.5 103.016 25.875 103.047 26.2812C103.109 27.1562 102.844 27.9062 102.25 28.5312C101.688 29.1562 100.953 29.4688 100.047 29.4688C99.0156 29.4688 98.25 29.2656 97.75 28.8594C97.2812 28.4219 96.8906 27.875 96.5781 27.2188L95.6875 24.7812H86.2656C85.3906 24.7812 84.6562 24.4688 84.0625 23.8438C83.4375 23.25 83.125 22.5156 83.125 21.6406ZM110.875 0.5C111.75 0.5 112.5 0.796875 113.125 1.39062C113.75 1.95312 114.078 2.67188 114.109 3.54688V14.8438C114.078 16.125 114.156 17.3125 114.344 18.4062C114.562 19.4688 115.062 20.4219 115.844 21.2656C116.625 22.1094 117.609 22.5625 118.797 22.625H133.797C134.672 22.6562 135.391 22.9844 135.953 23.6094C136.547 24.2344 136.844 24.9844 136.844 25.8594C136.812 26.7031 136.5 27.4219 135.906 28.0156C135.344 28.5781 134.641 28.875 133.797 28.9062H117.203C115.016 28.7812 113.203 28.0469 111.766 26.7031C110.359 25.3281 109.344 23.6562 108.719 21.6875C108.125 19.7188 107.812 17.625 107.781 15.4062V3.54688C107.812 2.70312 108.125 2 108.719 1.4375C109.312 0.84375 110.031 0.53125 110.875 0.5ZM166.469 1.25C168.062 1.28125 169.484 1.78125 170.734 2.75C171.984 3.71875 172.984 4.875 173.734 6.21875C174.516 7.5625 175.094 8.98438 175.469 10.4844C175.844 11.9844 176.031 13.5156 176.031 15.0781C176.031 17.1406 175.703 19.1719 175.047 21.1719C174.422 23.1406 173.375 24.8906 171.906 26.4219C170.469 27.9531 168.656 28.7812 166.469 28.9062H150.109C147.922 28.8125 146.094 28 144.625 26.4688C143.156 24.9375 142.109 23.1719 141.484 21.1719C140.891 19.1719 140.594 17.1406 140.594 15.0781C140.594 13.0156 140.906 11 141.531 9.03125C142.156 7.03125 143.188 5.26562 144.625 3.73438C146.094 2.17187 147.922 1.34375 150.109 1.25H151H165.578H166.469ZM164.875 22.625C166.062 22.5625 167.047 22.125 167.828 21.3125C168.641 20.4688 169.219 19.5 169.562 18.4062C169.906 17.3125 170.078 16.2031 170.078 15.0781C170.078 13.9531 169.891 12.8594 169.516 11.7969C169.172 10.7031 168.609 9.73438 167.828 8.89062C167.047 8.04688 166.062 7.59375 164.875 7.53125H151.562C150.375 7.59375 149.391 8.04688 148.609 8.89062C147.828 9.73438 147.25 10.7031 146.875 11.7969C146.531 12.8594 146.359 13.9531 146.359 15.0781C146.359 16.2031 146.531 17.3125 146.875 18.4062C147.219 19.5 147.781 20.4688 148.562 21.3125C149.375 22.125 150.375 22.5625 151.562 22.625H164.875ZM190.047 1.25H209.828C210.703 1.28125 211.422 1.60937 211.984 2.23438C212.578 2.85938 212.875 3.60938 212.875 4.48438C212.719 6.35938 211.703 7.375 209.828 7.53125H191.641C190.453 7.59375 189.469 8.04688 188.688 8.89062C187.906 9.73438 187.328 10.7031 186.953 11.7969C186.609 12.8594 186.438 13.9531 186.438 15.0781C186.438 16.2031 186.609 17.3125 186.953 18.4062C187.328 19.4688 187.906 20.4219 188.688 21.2656C189.469 22.1094 190.453 22.5625 191.641 22.625H205.891C206.453 22.5938 206.75 22.2812 206.781 21.6875V18.9688C206.75 18.3438 206.453 18.0312 205.891 18.0312H193.891C193.016 18.0312 192.266 17.7344 191.641 17.1406C191.047 16.5156 190.75 15.7656 190.75 14.8906C190.75 14.0156 191.047 13.2656 191.641 12.6406C192.266 12.0469 193.016 11.75 193.891 11.75H209.922C210.797 11.75 211.547 12.0469 212.172 12.6406C212.734 13.2344 213.031 13.9531 213.062 14.7969V14.8906V25.8594C213.031 26.7031 212.734 27.4062 212.172 27.9688C211.578 28.5625 210.859 28.875 210.016 28.9062H190.047C187.859 28.7812 186.047 27.9531 184.609 26.4219C183.203 24.8594 182.188 23.0938 181.562 21.125C180.969 19.1562 180.672 17.1406 180.672 15.0781C180.672 13.0156 180.984 11 181.609 9.03125C182.234 7.0625 183.25 5.3125 184.656 3.78125C186.062 2.21875 187.859 1.375 190.047 1.25Z" fill="black"/>
</svg>
