<svg width="337" height="120" viewBox="0 0 337 120" fill="none" xmlns="http://www.w3.org/2000/svg">
<path d="M25.344 53.048L46.848 27.768H72.128L44.032 56.824L60.032 83.064H35.648L24.384 59.64L20.608 83.064H0.96L12.224 17.464C13.184 12.024 21.568 5.368 32.832 5.368L25.344 53.048ZM68.2175 83L74.7455 42.744C76.6015 33.336 85.1135 27.768 96.3135 27.768L87.8655 83H68.2175ZM78.5215 10.936C78.5215 8.12 79.4815 6.136 81.3375 3.384C83.1935 1.464 86.0095 0.567993 88.8255 0.567993C91.6415 0.567993 94.4575 1.464 96.3135 3.384C98.1695 5.304 99.1295 8.12 99.1295 10.936C99.1295 13.688 98.1695 16.504 96.3135 18.36C94.4575 20.216 91.6415 21.176 88.8255 21.176C86.0095 21.176 83.1935 20.216 81.3375 18.36C79.4815 16.504 78.5215 13.688 78.5215 10.936ZM145.25 27.768H163.362L156.13 83.064H137.698L138.914 74.744C133.666 79.864 131.17 83 122.658 83C117.09 83 112.61 81.144 108.962 76.6C105.442 72.12 103.586 66.68 103.586 59.384C103.586 50.36 105.442 43.064 109.922 37.688C115.362 32.312 121.698 27.768 128.994 27.768C134.69 27.768 140.962 31.16 144.29 35L145.25 27.768ZM141.666 53.944C142.498 50.36 141.666 46.84 140.706 44.92C138.914 42.232 137.058 40.44 134.306 40.44C131.682 39.544 128.994 41.272 126.178 44.024C123.49 46.84 122.658 50.36 121.698 55.864C120.802 59.384 121.698 62.136 122.658 64.888C124.45 67.576 126.178 68.472 128.994 69.432C131.682 69.432 135.266 68.472 137.058 65.784C139.746 63.096 141.666 58.488 141.666 53.944ZM176.331 22.52C178.123 15.16 185.419 6.904 197.323 7.864L185.419 82.872H166.219L176.331 22.52ZM235.016 27.768C243.016 27.768 250.184 29.624 256.392 35.832C261.768 41.144 262.664 47.416 261.768 54.52C260.872 60.728 258.184 67.832 251.912 73.208C244.808 80.312 236.872 82.104 228.808 83C220.808 83 212.744 82.104 207.432 75.896C202.12 70.584 200.328 63.352 201.224 56.248C202.12 49.144 204.808 42.936 211.016 36.728C218.12 30.456 226.12 27.768 235.016 27.768ZM238.664 65.208C242.888 60.92 245.064 49.592 241.288 43.832C239.496 41.144 236.872 40.312 234.184 40.312C230.6 40.312 227.08 41.144 224.328 44.664C221.704 48.312 220.808 51.896 219.976 57.208C219.976 61.624 220.808 64.312 222.6 67C224.328 68.792 226.12 70.584 229.704 70.584C233.224 70.584 235.912 68.792 238.664 65.208ZM318.645 27.704H336.373C329.269 65.912 326.069 87.736 320.565 97.08C307.125 119.864 278.773 113.272 267.957 97.784L282.613 88.44C293.237 97.208 305.461 94.2 310.197 74.36C301.365 83.576 288.245 87.352 278.517 75.32C273.909 70.712 272.053 65.08 272.053 57.592C272.053 49.208 274.741 41.72 280.437 35.192C286.069 29.56 289.781 27.704 298.165 27.704C306.229 27.704 311.349 30.392 316.789 37.048L318.645 27.704ZM313.973 53.24C313.973 48.312 311.093 39.224 304.629 39.224C301.813 39.224 299.061 40.184 296.245 43.896C291.829 48.312 290.805 60.024 294.389 65.4C297.781 70.392 305.717 70.712 309.365 65.4C312.117 62.584 313.077 57.912 313.973 53.24Z" fill="#2e2e2e"/>
</svg>
